G04 EAGLE Gerber RS-274X export*
G75*
%MOMM*%
%FSLAX34Y34*%
%LPD*%
%INBottom Copper*%
%IPPOS*%
%AMOC8*
5,1,8,0,0,1.08239X$1,22.5*%
G01*
%ADD10C,1.508000*%
%ADD11C,3.750000*%
%ADD12C,3.810000*%
%ADD13C,1.778000*%
%ADD14P,1.632244X8X202.500000*%
%ADD15C,1.600000*%
%ADD16C,0.152400*%

G36*
X1119198Y-27936D02*
X1119198Y-27936D01*
X1119217Y-27938D01*
X1119319Y-27916D01*
X1119421Y-27900D01*
X1119438Y-27890D01*
X1119458Y-27886D01*
X1119547Y-27833D01*
X1119638Y-27784D01*
X1119652Y-27770D01*
X1119669Y-27760D01*
X1119736Y-27681D01*
X1119808Y-27606D01*
X1119816Y-27588D01*
X1119829Y-27573D01*
X1119868Y-27477D01*
X1119911Y-27383D01*
X1119913Y-27363D01*
X1119921Y-27345D01*
X1119939Y-27178D01*
X1119939Y698500D01*
X1119936Y698520D01*
X1119938Y698539D01*
X1119916Y698641D01*
X1119900Y698743D01*
X1119890Y698760D01*
X1119886Y698780D01*
X1119833Y698869D01*
X1119784Y698960D01*
X1119770Y698974D01*
X1119760Y698991D01*
X1119681Y699058D01*
X1119606Y699130D01*
X1119588Y699138D01*
X1119573Y699151D01*
X1119477Y699190D01*
X1119383Y699233D01*
X1119363Y699235D01*
X1119345Y699243D01*
X1119178Y699261D01*
X10922Y699261D01*
X10902Y699258D01*
X10883Y699260D01*
X10781Y699238D01*
X10679Y699222D01*
X10662Y699212D01*
X10642Y699208D01*
X10553Y699155D01*
X10462Y699106D01*
X10448Y699092D01*
X10431Y699082D01*
X10364Y699003D01*
X10292Y698928D01*
X10284Y698910D01*
X10271Y698895D01*
X10232Y698799D01*
X10189Y698705D01*
X10187Y698685D01*
X10179Y698667D01*
X10161Y698500D01*
X10161Y-27178D01*
X10164Y-27198D01*
X10162Y-27217D01*
X10184Y-27319D01*
X10200Y-27421D01*
X10210Y-27438D01*
X10214Y-27458D01*
X10267Y-27547D01*
X10316Y-27638D01*
X10330Y-27652D01*
X10340Y-27669D01*
X10419Y-27736D01*
X10494Y-27808D01*
X10512Y-27816D01*
X10527Y-27829D01*
X10623Y-27868D01*
X10717Y-27911D01*
X10737Y-27913D01*
X10755Y-27921D01*
X10922Y-27939D01*
X1119178Y-27939D01*
X1119198Y-27936D01*
G37*
%LPC*%
G36*
X124021Y-3811D02*
X124021Y-3811D01*
X122458Y-2248D01*
X112108Y8102D01*
X112070Y8129D01*
X112039Y8163D01*
X111971Y8201D01*
X111908Y8246D01*
X111864Y8259D01*
X111824Y8282D01*
X111747Y8295D01*
X111673Y8318D01*
X111627Y8317D01*
X111582Y8325D01*
X111505Y8314D01*
X111427Y8312D01*
X111384Y8296D01*
X111338Y8289D01*
X111269Y8254D01*
X111196Y8227D01*
X111160Y8199D01*
X111119Y8178D01*
X111065Y8122D01*
X111004Y8074D01*
X110979Y8035D01*
X110947Y8002D01*
X110881Y7883D01*
X110871Y7867D01*
X110870Y7862D01*
X110866Y7855D01*
X110429Y6800D01*
X107500Y3871D01*
X103672Y2285D01*
X99528Y2285D01*
X95700Y3871D01*
X92771Y6800D01*
X91185Y10628D01*
X91185Y14772D01*
X92771Y18600D01*
X95700Y21529D01*
X99528Y23115D01*
X103672Y23115D01*
X107500Y21529D01*
X110429Y18600D01*
X112033Y14726D01*
X112068Y14671D01*
X112094Y14610D01*
X112145Y14546D01*
X112163Y14517D01*
X112178Y14505D01*
X112198Y14479D01*
X115286Y11392D01*
X115344Y11350D01*
X115396Y11301D01*
X115443Y11279D01*
X115485Y11249D01*
X115554Y11228D01*
X115619Y11197D01*
X115671Y11192D01*
X115721Y11176D01*
X115792Y11178D01*
X115863Y11170D01*
X115914Y11181D01*
X115966Y11183D01*
X116034Y11207D01*
X116104Y11222D01*
X116148Y11249D01*
X116197Y11267D01*
X116253Y11312D01*
X116315Y11349D01*
X116349Y11388D01*
X116389Y11421D01*
X116428Y11481D01*
X116475Y11536D01*
X116494Y11584D01*
X116522Y11628D01*
X116540Y11697D01*
X116567Y11764D01*
X116575Y11835D01*
X116583Y11866D01*
X116581Y11890D01*
X116585Y11930D01*
X116585Y14772D01*
X118171Y18600D01*
X121100Y21529D01*
X124928Y23115D01*
X129072Y23115D01*
X132900Y21529D01*
X135829Y18600D01*
X137415Y14772D01*
X137415Y10628D01*
X135829Y6800D01*
X132900Y3871D01*
X129072Y2285D01*
X126230Y2285D01*
X126161Y2274D01*
X126090Y2272D01*
X126040Y2254D01*
X125988Y2246D01*
X125925Y2213D01*
X125859Y2188D01*
X125817Y2155D01*
X125770Y2130D01*
X125722Y2079D01*
X125666Y2035D01*
X125638Y1991D01*
X125601Y1952D01*
X125571Y1888D01*
X125533Y1829D01*
X125520Y1777D01*
X125497Y1729D01*
X125490Y1659D01*
X125472Y1590D01*
X125476Y1537D01*
X125470Y1485D01*
X125485Y1415D01*
X125491Y1345D01*
X125511Y1296D01*
X125522Y1244D01*
X125559Y1184D01*
X125586Y1118D01*
X125621Y1079D01*
X125649Y1033D01*
X125702Y987D01*
X125749Y934D01*
X125811Y894D01*
X125836Y873D01*
X125857Y865D01*
X125890Y843D01*
X125978Y816D01*
X126064Y781D01*
X126103Y777D01*
X126125Y770D01*
X126157Y771D01*
X126231Y763D01*
X147479Y763D01*
X147546Y774D01*
X147614Y775D01*
X147667Y793D01*
X147722Y802D01*
X147782Y834D01*
X147846Y857D01*
X147890Y891D01*
X147939Y918D01*
X147986Y967D01*
X148039Y1008D01*
X148070Y1055D01*
X148109Y1096D01*
X148137Y1157D01*
X148174Y1214D01*
X148189Y1268D01*
X148212Y1319D01*
X148220Y1386D01*
X148237Y1452D01*
X148233Y1508D01*
X148239Y1563D01*
X148225Y1630D01*
X148220Y1697D01*
X148199Y1749D01*
X148187Y1804D01*
X148152Y1862D01*
X148126Y1925D01*
X148090Y1967D01*
X148061Y2015D01*
X148009Y2059D01*
X147965Y2110D01*
X147899Y2153D01*
X147874Y2175D01*
X147854Y2183D01*
X147825Y2202D01*
X146409Y2924D01*
X144953Y3981D01*
X143681Y5253D01*
X142624Y6709D01*
X141807Y8312D01*
X141251Y10023D01*
X141068Y11177D01*
X151638Y11177D01*
X151658Y11180D01*
X151677Y11178D01*
X151779Y11200D01*
X151881Y11217D01*
X151898Y11226D01*
X151918Y11230D01*
X152007Y11283D01*
X152098Y11332D01*
X152112Y11346D01*
X152129Y11356D01*
X152196Y11435D01*
X152267Y11510D01*
X152276Y11528D01*
X152289Y11543D01*
X152327Y11639D01*
X152371Y11733D01*
X152373Y11753D01*
X152381Y11771D01*
X152399Y11938D01*
X152399Y12701D01*
X152401Y12701D01*
X152401Y11938D01*
X152404Y11918D01*
X152402Y11899D01*
X152424Y11797D01*
X152441Y11695D01*
X152450Y11678D01*
X152454Y11658D01*
X152507Y11569D01*
X152556Y11478D01*
X152570Y11464D01*
X152580Y11447D01*
X152659Y11380D01*
X152734Y11309D01*
X152752Y11300D01*
X152767Y11287D01*
X152863Y11248D01*
X152957Y11205D01*
X152977Y11203D01*
X152995Y11195D01*
X153162Y11177D01*
X163732Y11177D01*
X163549Y10023D01*
X162993Y8312D01*
X162176Y6709D01*
X161119Y5253D01*
X159847Y3981D01*
X158391Y2924D01*
X156975Y2202D01*
X156921Y2162D01*
X156861Y2130D01*
X156822Y2090D01*
X156777Y2057D01*
X156738Y2001D01*
X156691Y1952D01*
X156668Y1901D01*
X156636Y1855D01*
X156616Y1790D01*
X156588Y1729D01*
X156582Y1673D01*
X156566Y1620D01*
X156568Y1552D01*
X156561Y1485D01*
X156573Y1430D01*
X156575Y1374D01*
X156599Y1311D01*
X156613Y1244D01*
X156642Y1196D01*
X156662Y1144D01*
X156704Y1091D01*
X156739Y1033D01*
X156782Y997D01*
X156817Y953D01*
X156875Y917D01*
X156926Y873D01*
X156978Y852D01*
X157025Y822D01*
X157091Y807D01*
X157154Y781D01*
X157233Y773D01*
X157265Y765D01*
X157285Y767D01*
X157321Y763D01*
X337066Y763D01*
X337136Y774D01*
X337208Y776D01*
X337257Y794D01*
X337308Y802D01*
X337372Y836D01*
X337439Y861D01*
X337480Y893D01*
X337526Y918D01*
X337575Y969D01*
X337631Y1014D01*
X337659Y1058D01*
X337695Y1096D01*
X337725Y1161D01*
X337764Y1221D01*
X337777Y1272D01*
X337799Y1319D01*
X337807Y1390D01*
X337824Y1460D01*
X337820Y1512D01*
X337826Y1563D01*
X337811Y1634D01*
X337805Y1705D01*
X337785Y1753D01*
X337774Y1804D01*
X337737Y1865D01*
X337709Y1931D01*
X337664Y1987D01*
X337647Y2015D01*
X337630Y2030D01*
X337604Y2062D01*
X336244Y3422D01*
X336150Y3490D01*
X336055Y3560D01*
X336049Y3562D01*
X336044Y3566D01*
X335933Y3600D01*
X335822Y3636D01*
X335815Y3636D01*
X335809Y3638D01*
X335692Y3635D01*
X335576Y3634D01*
X335568Y3632D01*
X335563Y3632D01*
X335546Y3625D01*
X335414Y3587D01*
X332272Y2285D01*
X328128Y2285D01*
X324300Y3871D01*
X321371Y6800D01*
X319785Y10628D01*
X319785Y14772D01*
X321371Y18600D01*
X324300Y21529D01*
X328128Y23115D01*
X332272Y23115D01*
X336100Y21529D01*
X339029Y18600D01*
X340615Y14772D01*
X340615Y10628D01*
X339313Y7486D01*
X339286Y7372D01*
X339258Y7258D01*
X339258Y7252D01*
X339257Y7246D01*
X339268Y7129D01*
X339277Y7013D01*
X339279Y7008D01*
X339280Y7001D01*
X339328Y6894D01*
X339373Y6787D01*
X339378Y6781D01*
X339380Y6776D01*
X339392Y6763D01*
X339478Y6656D01*
X342100Y4034D01*
X342174Y3981D01*
X342244Y3921D01*
X342274Y3909D01*
X342300Y3890D01*
X342387Y3863D01*
X342472Y3829D01*
X342513Y3825D01*
X342535Y3818D01*
X342567Y3819D01*
X342639Y3811D01*
X347923Y3811D01*
X347994Y3822D01*
X348065Y3824D01*
X348114Y3842D01*
X348166Y3850D01*
X348229Y3884D01*
X348296Y3909D01*
X348337Y3941D01*
X348383Y3966D01*
X348432Y4018D01*
X348488Y4062D01*
X348516Y4106D01*
X348552Y4144D01*
X348582Y4209D01*
X348621Y4269D01*
X348634Y4320D01*
X348656Y4367D01*
X348664Y4438D01*
X348681Y4508D01*
X348677Y4560D01*
X348683Y4611D01*
X348668Y4682D01*
X348662Y4753D01*
X348642Y4801D01*
X348631Y4852D01*
X348594Y4913D01*
X348566Y4979D01*
X348521Y5035D01*
X348505Y5063D01*
X348487Y5078D01*
X348461Y5110D01*
X346771Y6800D01*
X345185Y10628D01*
X345185Y14772D01*
X346771Y18600D01*
X349700Y21529D01*
X353528Y23115D01*
X357672Y23115D01*
X360814Y21813D01*
X360928Y21786D01*
X361042Y21758D01*
X361048Y21758D01*
X361054Y21757D01*
X361171Y21768D01*
X361287Y21777D01*
X361292Y21779D01*
X361299Y21780D01*
X361406Y21828D01*
X361513Y21873D01*
X361519Y21878D01*
X361524Y21880D01*
X361537Y21893D01*
X361644Y21978D01*
X555274Y215608D01*
X555327Y215682D01*
X555387Y215752D01*
X555399Y215782D01*
X555418Y215808D01*
X555445Y215895D01*
X555479Y215980D01*
X555483Y216021D01*
X555490Y216043D01*
X555489Y216075D01*
X555497Y216147D01*
X555497Y652248D01*
X555478Y652363D01*
X555461Y652479D01*
X555459Y652484D01*
X555458Y652491D01*
X555403Y652593D01*
X555350Y652698D01*
X555345Y652702D01*
X555342Y652708D01*
X555258Y652788D01*
X555174Y652870D01*
X555168Y652874D01*
X555164Y652877D01*
X555147Y652885D01*
X555027Y652951D01*
X553665Y653515D01*
X551115Y656065D01*
X549735Y659397D01*
X549735Y663003D01*
X551115Y666335D01*
X553278Y668498D01*
X553320Y668556D01*
X553369Y668608D01*
X553391Y668655D01*
X553422Y668697D01*
X553443Y668766D01*
X553473Y668831D01*
X553479Y668883D01*
X553494Y668933D01*
X553492Y669004D01*
X553500Y669075D01*
X553489Y669126D01*
X553488Y669178D01*
X553463Y669246D01*
X553448Y669316D01*
X553421Y669361D01*
X553403Y669409D01*
X553358Y669465D01*
X553322Y669527D01*
X553282Y669561D01*
X553250Y669601D01*
X553189Y669640D01*
X553135Y669687D01*
X553087Y669706D01*
X553043Y669734D01*
X552973Y669752D01*
X552907Y669779D01*
X552835Y669787D01*
X552804Y669795D01*
X552781Y669793D01*
X552740Y669797D01*
X539460Y669797D01*
X539389Y669786D01*
X539318Y669784D01*
X539269Y669766D01*
X539217Y669758D01*
X539154Y669724D01*
X539087Y669699D01*
X539046Y669667D01*
X539000Y669642D01*
X538951Y669590D01*
X538895Y669546D01*
X538866Y669502D01*
X538831Y669464D01*
X538800Y669399D01*
X538762Y669339D01*
X538749Y669288D01*
X538727Y669241D01*
X538719Y669170D01*
X538701Y669100D01*
X538706Y669048D01*
X538700Y668997D01*
X538715Y668926D01*
X538721Y668855D01*
X538741Y668807D01*
X538752Y668756D01*
X538789Y668695D01*
X538817Y668629D01*
X538862Y668573D01*
X538878Y668545D01*
X538896Y668530D01*
X538922Y668498D01*
X541085Y666335D01*
X542465Y663003D01*
X542465Y659397D01*
X541085Y656065D01*
X538535Y653515D01*
X535203Y652135D01*
X531597Y652135D01*
X528265Y653515D01*
X525715Y656065D01*
X524335Y659397D01*
X524335Y663003D01*
X525715Y666335D01*
X527878Y668498D01*
X527920Y668556D01*
X527969Y668608D01*
X527991Y668655D01*
X528022Y668697D01*
X528043Y668766D01*
X528073Y668831D01*
X528079Y668883D01*
X528094Y668933D01*
X528092Y669004D01*
X528100Y669075D01*
X528089Y669126D01*
X528088Y669178D01*
X528063Y669246D01*
X528048Y669316D01*
X528021Y669361D01*
X528003Y669409D01*
X527958Y669465D01*
X527922Y669527D01*
X527882Y669561D01*
X527850Y669601D01*
X527789Y669640D01*
X527735Y669687D01*
X527687Y669706D01*
X527643Y669734D01*
X527573Y669752D01*
X527507Y669779D01*
X527435Y669787D01*
X527404Y669795D01*
X527381Y669793D01*
X527340Y669797D01*
X515497Y669797D01*
X515426Y669786D01*
X515354Y669784D01*
X515305Y669766D01*
X515254Y669758D01*
X515191Y669724D01*
X515123Y669699D01*
X515083Y669667D01*
X515037Y669642D01*
X514987Y669590D01*
X514931Y669546D01*
X514903Y669502D01*
X514867Y669464D01*
X514837Y669399D01*
X514798Y669339D01*
X514786Y669288D01*
X514764Y669241D01*
X514756Y669170D01*
X514738Y669100D01*
X514742Y669048D01*
X514737Y668997D01*
X514752Y668926D01*
X514757Y668855D01*
X514778Y668807D01*
X514789Y668756D01*
X514826Y668695D01*
X514854Y668629D01*
X514899Y668573D01*
X514915Y668545D01*
X514933Y668530D01*
X514959Y668498D01*
X515689Y667767D01*
X516622Y666483D01*
X517342Y665070D01*
X517833Y663561D01*
X517965Y662723D01*
X508762Y662723D01*
X508742Y662720D01*
X508723Y662722D01*
X508621Y662700D01*
X508519Y662683D01*
X508502Y662674D01*
X508482Y662670D01*
X508393Y662617D01*
X508302Y662568D01*
X508288Y662554D01*
X508271Y662544D01*
X508204Y662465D01*
X508133Y662390D01*
X508124Y662372D01*
X508111Y662357D01*
X508073Y662261D01*
X508029Y662167D01*
X508027Y662147D01*
X508019Y662129D01*
X508001Y661962D01*
X508001Y661199D01*
X507999Y661199D01*
X507999Y661962D01*
X507996Y661982D01*
X507998Y662001D01*
X507976Y662103D01*
X507959Y662205D01*
X507950Y662222D01*
X507946Y662242D01*
X507893Y662331D01*
X507844Y662422D01*
X507830Y662436D01*
X507820Y662453D01*
X507741Y662520D01*
X507666Y662591D01*
X507648Y662600D01*
X507633Y662613D01*
X507537Y662652D01*
X507443Y662695D01*
X507423Y662697D01*
X507405Y662705D01*
X507238Y662723D01*
X498035Y662723D01*
X498167Y663561D01*
X498658Y665070D01*
X499378Y666483D01*
X500311Y667767D01*
X501041Y668498D01*
X501083Y668556D01*
X501133Y668608D01*
X501155Y668655D01*
X501185Y668697D01*
X501206Y668766D01*
X501236Y668831D01*
X501242Y668883D01*
X501257Y668933D01*
X501255Y669004D01*
X501263Y669075D01*
X501252Y669126D01*
X501251Y669178D01*
X501226Y669246D01*
X501211Y669316D01*
X501184Y669361D01*
X501167Y669409D01*
X501122Y669465D01*
X501085Y669527D01*
X501045Y669561D01*
X501013Y669601D01*
X500953Y669640D01*
X500898Y669687D01*
X500850Y669706D01*
X500806Y669734D01*
X500736Y669752D01*
X500670Y669779D01*
X500599Y669787D01*
X500567Y669795D01*
X500544Y669793D01*
X500503Y669797D01*
X490097Y669797D01*
X490026Y669786D01*
X489954Y669784D01*
X489905Y669766D01*
X489854Y669758D01*
X489791Y669724D01*
X489723Y669699D01*
X489683Y669667D01*
X489637Y669642D01*
X489587Y669590D01*
X489531Y669546D01*
X489503Y669502D01*
X489467Y669464D01*
X489437Y669399D01*
X489398Y669339D01*
X489386Y669288D01*
X489364Y669241D01*
X489356Y669170D01*
X489338Y669100D01*
X489342Y669048D01*
X489337Y668997D01*
X489352Y668926D01*
X489357Y668855D01*
X489378Y668807D01*
X489389Y668756D01*
X489426Y668695D01*
X489454Y668629D01*
X489499Y668573D01*
X489515Y668545D01*
X489533Y668530D01*
X489559Y668498D01*
X490289Y667767D01*
X491222Y666483D01*
X491942Y665070D01*
X492433Y663561D01*
X492565Y662723D01*
X483362Y662723D01*
X483342Y662720D01*
X483323Y662722D01*
X483221Y662700D01*
X483119Y662683D01*
X483102Y662674D01*
X483082Y662670D01*
X482993Y662617D01*
X482902Y662568D01*
X482888Y662554D01*
X482871Y662544D01*
X482804Y662465D01*
X482733Y662390D01*
X482724Y662372D01*
X482711Y662357D01*
X482673Y662261D01*
X482629Y662167D01*
X482627Y662147D01*
X482619Y662129D01*
X482601Y661962D01*
X482601Y661199D01*
X482599Y661199D01*
X482599Y661962D01*
X482596Y661982D01*
X482598Y662001D01*
X482576Y662103D01*
X482559Y662205D01*
X482550Y662222D01*
X482546Y662242D01*
X482493Y662331D01*
X482444Y662422D01*
X482430Y662436D01*
X482420Y662453D01*
X482341Y662520D01*
X482266Y662591D01*
X482248Y662600D01*
X482233Y662613D01*
X482137Y662652D01*
X482043Y662695D01*
X482023Y662697D01*
X482005Y662705D01*
X481838Y662723D01*
X472635Y662723D01*
X472767Y663561D01*
X473258Y665070D01*
X473978Y666483D01*
X474911Y667767D01*
X475641Y668498D01*
X475683Y668556D01*
X475733Y668608D01*
X475755Y668655D01*
X475785Y668697D01*
X475806Y668766D01*
X475836Y668831D01*
X475842Y668883D01*
X475857Y668933D01*
X475855Y669004D01*
X475863Y669075D01*
X475852Y669126D01*
X475851Y669178D01*
X475826Y669246D01*
X475811Y669316D01*
X475784Y669361D01*
X475767Y669409D01*
X475722Y669465D01*
X475685Y669527D01*
X475645Y669561D01*
X475613Y669601D01*
X475553Y669640D01*
X475498Y669687D01*
X475450Y669706D01*
X475406Y669734D01*
X475336Y669752D01*
X475270Y669779D01*
X475199Y669787D01*
X475167Y669795D01*
X475144Y669793D01*
X475103Y669797D01*
X464697Y669797D01*
X464626Y669786D01*
X464554Y669784D01*
X464505Y669766D01*
X464454Y669758D01*
X464391Y669724D01*
X464323Y669699D01*
X464283Y669667D01*
X464237Y669642D01*
X464187Y669590D01*
X464131Y669546D01*
X464103Y669502D01*
X464067Y669464D01*
X464037Y669399D01*
X463998Y669339D01*
X463986Y669288D01*
X463964Y669241D01*
X463956Y669170D01*
X463938Y669100D01*
X463942Y669048D01*
X463937Y668997D01*
X463952Y668926D01*
X463957Y668855D01*
X463978Y668807D01*
X463989Y668756D01*
X464026Y668695D01*
X464054Y668629D01*
X464099Y668573D01*
X464115Y668545D01*
X464133Y668530D01*
X464159Y668498D01*
X464889Y667767D01*
X465822Y666483D01*
X466542Y665070D01*
X467033Y663561D01*
X467165Y662723D01*
X457962Y662723D01*
X457942Y662720D01*
X457923Y662722D01*
X457821Y662700D01*
X457719Y662683D01*
X457702Y662674D01*
X457682Y662670D01*
X457593Y662617D01*
X457502Y662568D01*
X457488Y662554D01*
X457471Y662544D01*
X457404Y662465D01*
X457333Y662390D01*
X457324Y662372D01*
X457311Y662357D01*
X457273Y662261D01*
X457229Y662167D01*
X457227Y662147D01*
X457219Y662129D01*
X457201Y661962D01*
X457201Y661199D01*
X457199Y661199D01*
X457199Y661962D01*
X457196Y661982D01*
X457198Y662001D01*
X457176Y662103D01*
X457159Y662205D01*
X457150Y662222D01*
X457146Y662242D01*
X457093Y662331D01*
X457044Y662422D01*
X457030Y662436D01*
X457020Y662453D01*
X456941Y662520D01*
X456866Y662591D01*
X456848Y662600D01*
X456833Y662613D01*
X456737Y662652D01*
X456643Y662695D01*
X456623Y662697D01*
X456605Y662705D01*
X456438Y662723D01*
X447235Y662723D01*
X447367Y663561D01*
X447858Y665070D01*
X448578Y666483D01*
X449511Y667767D01*
X450241Y668498D01*
X450283Y668556D01*
X450333Y668608D01*
X450355Y668655D01*
X450385Y668697D01*
X450406Y668766D01*
X450436Y668831D01*
X450442Y668883D01*
X450457Y668933D01*
X450455Y669004D01*
X450463Y669075D01*
X450452Y669126D01*
X450451Y669178D01*
X450426Y669246D01*
X450411Y669316D01*
X450384Y669361D01*
X450367Y669409D01*
X450322Y669465D01*
X450285Y669527D01*
X450245Y669561D01*
X450213Y669601D01*
X450153Y669640D01*
X450098Y669687D01*
X450050Y669706D01*
X450006Y669734D01*
X449936Y669752D01*
X449870Y669779D01*
X449799Y669787D01*
X449767Y669795D01*
X449744Y669793D01*
X449703Y669797D01*
X439297Y669797D01*
X439226Y669786D01*
X439154Y669784D01*
X439105Y669766D01*
X439054Y669758D01*
X438991Y669724D01*
X438923Y669699D01*
X438883Y669667D01*
X438837Y669642D01*
X438787Y669590D01*
X438731Y669546D01*
X438703Y669502D01*
X438667Y669464D01*
X438637Y669399D01*
X438598Y669339D01*
X438586Y669288D01*
X438564Y669241D01*
X438556Y669170D01*
X438538Y669100D01*
X438542Y669048D01*
X438537Y668997D01*
X438552Y668926D01*
X438557Y668855D01*
X438578Y668807D01*
X438589Y668756D01*
X438626Y668695D01*
X438654Y668629D01*
X438699Y668573D01*
X438715Y668545D01*
X438733Y668530D01*
X438759Y668498D01*
X439489Y667767D01*
X440422Y666483D01*
X441142Y665070D01*
X441633Y663561D01*
X441765Y662723D01*
X432562Y662723D01*
X432542Y662720D01*
X432523Y662722D01*
X432421Y662700D01*
X432319Y662683D01*
X432302Y662674D01*
X432282Y662670D01*
X432193Y662617D01*
X432102Y662568D01*
X432088Y662554D01*
X432071Y662544D01*
X432004Y662465D01*
X431933Y662390D01*
X431924Y662372D01*
X431911Y662357D01*
X431873Y662261D01*
X431829Y662167D01*
X431827Y662147D01*
X431819Y662129D01*
X431801Y661962D01*
X431801Y661199D01*
X431799Y661199D01*
X431799Y661962D01*
X431796Y661982D01*
X431798Y662001D01*
X431776Y662103D01*
X431759Y662205D01*
X431750Y662222D01*
X431746Y662242D01*
X431693Y662331D01*
X431644Y662422D01*
X431630Y662436D01*
X431620Y662453D01*
X431541Y662520D01*
X431466Y662591D01*
X431448Y662600D01*
X431433Y662613D01*
X431337Y662652D01*
X431243Y662695D01*
X431223Y662697D01*
X431205Y662705D01*
X431038Y662723D01*
X421835Y662723D01*
X421967Y663561D01*
X422458Y665070D01*
X423178Y666483D01*
X424111Y667767D01*
X424841Y668498D01*
X424883Y668556D01*
X424933Y668608D01*
X424955Y668655D01*
X424985Y668697D01*
X425006Y668766D01*
X425036Y668831D01*
X425042Y668883D01*
X425057Y668933D01*
X425055Y669004D01*
X425063Y669075D01*
X425052Y669126D01*
X425051Y669178D01*
X425026Y669246D01*
X425011Y669316D01*
X424984Y669361D01*
X424967Y669409D01*
X424922Y669465D01*
X424885Y669527D01*
X424845Y669561D01*
X424813Y669601D01*
X424753Y669640D01*
X424698Y669687D01*
X424650Y669706D01*
X424606Y669734D01*
X424536Y669752D01*
X424470Y669779D01*
X424399Y669787D01*
X424367Y669795D01*
X424344Y669793D01*
X424303Y669797D01*
X413897Y669797D01*
X413826Y669786D01*
X413754Y669784D01*
X413705Y669766D01*
X413654Y669758D01*
X413591Y669724D01*
X413523Y669699D01*
X413483Y669667D01*
X413437Y669642D01*
X413387Y669590D01*
X413331Y669546D01*
X413303Y669502D01*
X413267Y669464D01*
X413237Y669399D01*
X413198Y669339D01*
X413186Y669288D01*
X413164Y669241D01*
X413156Y669170D01*
X413138Y669100D01*
X413142Y669048D01*
X413137Y668997D01*
X413152Y668926D01*
X413157Y668855D01*
X413178Y668807D01*
X413189Y668756D01*
X413226Y668695D01*
X413254Y668629D01*
X413299Y668573D01*
X413315Y668545D01*
X413333Y668530D01*
X413359Y668498D01*
X414089Y667767D01*
X415022Y666483D01*
X415742Y665070D01*
X416233Y663561D01*
X416365Y662723D01*
X407162Y662723D01*
X407142Y662720D01*
X407123Y662722D01*
X407021Y662700D01*
X406919Y662683D01*
X406902Y662674D01*
X406882Y662670D01*
X406793Y662617D01*
X406702Y662568D01*
X406688Y662554D01*
X406671Y662544D01*
X406604Y662465D01*
X406533Y662390D01*
X406524Y662372D01*
X406511Y662357D01*
X406473Y662261D01*
X406429Y662167D01*
X406427Y662147D01*
X406419Y662129D01*
X406401Y661962D01*
X406401Y661199D01*
X406399Y661199D01*
X406399Y661962D01*
X406396Y661982D01*
X406398Y662001D01*
X406376Y662103D01*
X406359Y662205D01*
X406350Y662222D01*
X406346Y662242D01*
X406293Y662331D01*
X406244Y662422D01*
X406230Y662436D01*
X406220Y662453D01*
X406141Y662520D01*
X406066Y662591D01*
X406048Y662600D01*
X406033Y662613D01*
X405937Y662652D01*
X405843Y662695D01*
X405823Y662697D01*
X405805Y662705D01*
X405638Y662723D01*
X396435Y662723D01*
X396567Y663561D01*
X397058Y665070D01*
X397778Y666483D01*
X398711Y667767D01*
X399441Y668498D01*
X399483Y668556D01*
X399533Y668608D01*
X399555Y668655D01*
X399585Y668697D01*
X399606Y668766D01*
X399636Y668831D01*
X399642Y668883D01*
X399657Y668933D01*
X399655Y669004D01*
X399663Y669075D01*
X399652Y669126D01*
X399651Y669178D01*
X399626Y669246D01*
X399611Y669316D01*
X399584Y669361D01*
X399567Y669409D01*
X399522Y669465D01*
X399485Y669527D01*
X399445Y669561D01*
X399413Y669601D01*
X399353Y669640D01*
X399298Y669687D01*
X399250Y669706D01*
X399206Y669734D01*
X399136Y669752D01*
X399070Y669779D01*
X398999Y669787D01*
X398967Y669795D01*
X398944Y669793D01*
X398903Y669797D01*
X388497Y669797D01*
X388426Y669786D01*
X388354Y669784D01*
X388305Y669766D01*
X388254Y669758D01*
X388191Y669724D01*
X388123Y669699D01*
X388083Y669667D01*
X388037Y669642D01*
X387987Y669590D01*
X387931Y669546D01*
X387903Y669502D01*
X387867Y669464D01*
X387837Y669399D01*
X387798Y669339D01*
X387786Y669288D01*
X387764Y669241D01*
X387756Y669170D01*
X387738Y669100D01*
X387742Y669048D01*
X387737Y668997D01*
X387752Y668926D01*
X387757Y668855D01*
X387778Y668807D01*
X387789Y668756D01*
X387826Y668695D01*
X387854Y668629D01*
X387899Y668573D01*
X387915Y668545D01*
X387933Y668530D01*
X387959Y668498D01*
X388689Y667767D01*
X389622Y666483D01*
X390342Y665070D01*
X390833Y663561D01*
X390965Y662723D01*
X381762Y662723D01*
X381742Y662720D01*
X381723Y662722D01*
X381621Y662700D01*
X381519Y662683D01*
X381502Y662674D01*
X381482Y662670D01*
X381393Y662617D01*
X381302Y662568D01*
X381288Y662554D01*
X381271Y662544D01*
X381204Y662465D01*
X381133Y662390D01*
X381124Y662372D01*
X381111Y662357D01*
X381073Y662261D01*
X381029Y662167D01*
X381027Y662147D01*
X381019Y662129D01*
X381001Y661962D01*
X381001Y661199D01*
X380999Y661199D01*
X380999Y661962D01*
X380996Y661982D01*
X380998Y662001D01*
X380976Y662103D01*
X380959Y662205D01*
X380950Y662222D01*
X380946Y662242D01*
X380893Y662331D01*
X380844Y662422D01*
X380830Y662436D01*
X380820Y662453D01*
X380741Y662520D01*
X380666Y662591D01*
X380648Y662600D01*
X380633Y662613D01*
X380537Y662652D01*
X380443Y662695D01*
X380423Y662697D01*
X380405Y662705D01*
X380238Y662723D01*
X371035Y662723D01*
X371167Y663561D01*
X371658Y665070D01*
X372378Y666483D01*
X373311Y667767D01*
X374041Y668498D01*
X374083Y668556D01*
X374133Y668608D01*
X374155Y668655D01*
X374185Y668697D01*
X374206Y668766D01*
X374236Y668831D01*
X374242Y668883D01*
X374257Y668933D01*
X374255Y669004D01*
X374263Y669075D01*
X374252Y669126D01*
X374251Y669178D01*
X374226Y669246D01*
X374211Y669316D01*
X374184Y669361D01*
X374167Y669409D01*
X374122Y669465D01*
X374085Y669527D01*
X374045Y669561D01*
X374013Y669601D01*
X373953Y669640D01*
X373898Y669687D01*
X373850Y669706D01*
X373806Y669734D01*
X373736Y669752D01*
X373670Y669779D01*
X373599Y669787D01*
X373567Y669795D01*
X373544Y669793D01*
X373503Y669797D01*
X368547Y669797D01*
X368456Y669783D01*
X368366Y669775D01*
X368336Y669763D01*
X368304Y669758D01*
X368223Y669715D01*
X368139Y669679D01*
X368107Y669653D01*
X368086Y669642D01*
X368064Y669619D01*
X368008Y669574D01*
X364079Y665645D01*
X364011Y665551D01*
X363941Y665456D01*
X363939Y665450D01*
X363935Y665445D01*
X363901Y665334D01*
X363865Y665223D01*
X363865Y665216D01*
X363863Y665210D01*
X363866Y665094D01*
X363867Y664977D01*
X363869Y664969D01*
X363869Y664964D01*
X363876Y664947D01*
X363914Y664816D01*
X364665Y663003D01*
X364665Y659397D01*
X363285Y656065D01*
X360735Y653515D01*
X357849Y652320D01*
X357749Y652258D01*
X357649Y652198D01*
X357645Y652194D01*
X357640Y652190D01*
X357565Y652100D01*
X357489Y652011D01*
X357487Y652006D01*
X357483Y652001D01*
X357441Y651892D01*
X357397Y651783D01*
X357396Y651776D01*
X357395Y651771D01*
X357394Y651753D01*
X357379Y651617D01*
X357379Y409009D01*
X175984Y227614D01*
X175942Y227556D01*
X175893Y227504D01*
X175871Y227457D01*
X175841Y227415D01*
X175820Y227346D01*
X175789Y227281D01*
X175784Y227229D01*
X175768Y227179D01*
X175770Y227108D01*
X175762Y227037D01*
X175773Y226986D01*
X175775Y226934D01*
X175799Y226866D01*
X175814Y226796D01*
X175841Y226752D01*
X175859Y226703D01*
X175904Y226647D01*
X175941Y226585D01*
X175980Y226551D01*
X176013Y226511D01*
X176073Y226472D01*
X176128Y226425D01*
X176176Y226406D01*
X176220Y226378D01*
X176289Y226360D01*
X176356Y226333D01*
X176427Y226325D01*
X176458Y226317D01*
X176482Y226319D01*
X176522Y226315D01*
X179872Y226315D01*
X183700Y224729D01*
X186629Y221800D01*
X188215Y217972D01*
X188215Y213828D01*
X186629Y210000D01*
X183700Y207071D01*
X179872Y205485D01*
X175728Y205485D01*
X171900Y207071D01*
X168971Y210000D01*
X167385Y213828D01*
X167385Y217178D01*
X167374Y217248D01*
X167372Y217320D01*
X167354Y217369D01*
X167346Y217420D01*
X167312Y217484D01*
X167287Y217551D01*
X167255Y217592D01*
X167230Y217638D01*
X167178Y217687D01*
X167134Y217743D01*
X167090Y217771D01*
X167052Y217807D01*
X166987Y217837D01*
X166927Y217876D01*
X166876Y217889D01*
X166829Y217911D01*
X166758Y217919D01*
X166688Y217936D01*
X166636Y217932D01*
X166585Y217938D01*
X166514Y217923D01*
X166443Y217917D01*
X166395Y217897D01*
X166344Y217886D01*
X166283Y217849D01*
X166217Y217821D01*
X166161Y217776D01*
X166133Y217759D01*
X166118Y217742D01*
X166086Y217716D01*
X78710Y130340D01*
X78657Y130266D01*
X78597Y130196D01*
X78585Y130166D01*
X78566Y130140D01*
X78539Y130053D01*
X78505Y129968D01*
X78501Y129927D01*
X78494Y129905D01*
X78495Y129873D01*
X78487Y129801D01*
X78487Y23534D01*
X78506Y23419D01*
X78523Y23303D01*
X78525Y23298D01*
X78526Y23292D01*
X78581Y23189D01*
X78634Y23084D01*
X78639Y23080D01*
X78642Y23074D01*
X78726Y22994D01*
X78810Y22912D01*
X78816Y22908D01*
X78820Y22905D01*
X78837Y22897D01*
X78957Y22831D01*
X82100Y21529D01*
X85029Y18600D01*
X86615Y14772D01*
X86615Y10628D01*
X85029Y6800D01*
X82100Y3871D01*
X78272Y2285D01*
X74128Y2285D01*
X70300Y3871D01*
X67371Y6800D01*
X65785Y10628D01*
X65785Y14772D01*
X67371Y18600D01*
X70300Y21529D01*
X73443Y22831D01*
X73543Y22893D01*
X73643Y22952D01*
X73647Y22957D01*
X73652Y22961D01*
X73727Y23051D01*
X73803Y23139D01*
X73805Y23145D01*
X73809Y23150D01*
X73851Y23258D01*
X73895Y23368D01*
X73896Y23375D01*
X73897Y23380D01*
X73898Y23398D01*
X73913Y23534D01*
X73913Y132011D01*
X352582Y410680D01*
X352635Y410754D01*
X352695Y410824D01*
X352707Y410854D01*
X352726Y410880D01*
X352753Y410967D01*
X352787Y411052D01*
X352791Y411093D01*
X352798Y411115D01*
X352797Y411147D01*
X352805Y411219D01*
X352805Y652037D01*
X352786Y652152D01*
X352769Y652268D01*
X352767Y652274D01*
X352766Y652280D01*
X352711Y652383D01*
X352658Y652488D01*
X352653Y652492D01*
X352650Y652497D01*
X352566Y652577D01*
X352482Y652660D01*
X352476Y652663D01*
X352472Y652667D01*
X352455Y652675D01*
X352335Y652741D01*
X350465Y653515D01*
X347915Y656065D01*
X346535Y659397D01*
X346535Y663003D01*
X347915Y666335D01*
X350465Y668885D01*
X353797Y670265D01*
X357403Y670265D01*
X360347Y669045D01*
X360460Y669019D01*
X360574Y668990D01*
X360580Y668991D01*
X360586Y668989D01*
X360703Y669000D01*
X360819Y669009D01*
X360825Y669012D01*
X360831Y669012D01*
X360939Y669060D01*
X361046Y669106D01*
X361051Y669110D01*
X361056Y669112D01*
X361070Y669125D01*
X361176Y669210D01*
X366337Y674371D01*
X741611Y674371D01*
X743174Y672808D01*
X1025918Y390064D01*
X1025934Y390053D01*
X1025946Y390037D01*
X1026034Y389981D01*
X1026117Y389921D01*
X1026136Y389915D01*
X1026153Y389904D01*
X1026254Y389879D01*
X1026352Y389848D01*
X1026372Y389849D01*
X1026392Y389844D01*
X1026495Y389852D01*
X1026598Y389855D01*
X1026617Y389862D01*
X1026637Y389863D01*
X1026732Y389903D01*
X1026829Y389939D01*
X1026845Y389952D01*
X1026863Y389959D01*
X1026994Y390064D01*
X1028905Y391975D01*
X1032405Y393425D01*
X1036195Y393425D01*
X1039695Y391975D01*
X1042375Y389295D01*
X1043825Y385795D01*
X1043825Y382005D01*
X1042375Y378505D01*
X1039695Y375825D01*
X1036195Y374375D01*
X1032405Y374375D01*
X1028905Y375825D01*
X1026225Y378505D01*
X1024775Y382005D01*
X1024775Y384423D01*
X1024761Y384514D01*
X1024753Y384604D01*
X1024741Y384634D01*
X1024736Y384666D01*
X1024693Y384747D01*
X1024657Y384831D01*
X1024631Y384863D01*
X1024620Y384884D01*
X1024597Y384906D01*
X1024552Y384962D01*
X747014Y662500D01*
X746940Y662553D01*
X746870Y662613D01*
X746840Y662625D01*
X746814Y662644D01*
X746727Y662671D01*
X746642Y662705D01*
X746601Y662709D01*
X746579Y662716D01*
X746547Y662715D01*
X746476Y662723D01*
X737362Y662723D01*
X737342Y662720D01*
X737323Y662722D01*
X737221Y662700D01*
X737119Y662683D01*
X737102Y662674D01*
X737082Y662670D01*
X736993Y662617D01*
X736902Y662568D01*
X736888Y662554D01*
X736871Y662544D01*
X736804Y662465D01*
X736733Y662390D01*
X736724Y662372D01*
X736711Y662357D01*
X736673Y662261D01*
X736629Y662167D01*
X736627Y662147D01*
X736619Y662129D01*
X736601Y661962D01*
X736601Y661199D01*
X736599Y661199D01*
X736599Y661962D01*
X736596Y661982D01*
X736598Y662001D01*
X736576Y662103D01*
X736559Y662205D01*
X736550Y662222D01*
X736546Y662242D01*
X736493Y662331D01*
X736444Y662422D01*
X736430Y662436D01*
X736420Y662453D01*
X736341Y662520D01*
X736266Y662591D01*
X736248Y662600D01*
X736233Y662613D01*
X736137Y662652D01*
X736043Y662695D01*
X736023Y662697D01*
X736005Y662705D01*
X735838Y662723D01*
X726635Y662723D01*
X726767Y663561D01*
X727258Y665070D01*
X727978Y666483D01*
X728911Y667767D01*
X729641Y668498D01*
X729683Y668556D01*
X729733Y668608D01*
X729755Y668655D01*
X729785Y668697D01*
X729806Y668766D01*
X729836Y668831D01*
X729842Y668883D01*
X729857Y668933D01*
X729855Y669004D01*
X729863Y669075D01*
X729852Y669126D01*
X729851Y669178D01*
X729826Y669246D01*
X729811Y669316D01*
X729784Y669361D01*
X729767Y669409D01*
X729722Y669465D01*
X729685Y669527D01*
X729645Y669561D01*
X729613Y669601D01*
X729553Y669640D01*
X729498Y669687D01*
X729450Y669706D01*
X729406Y669734D01*
X729336Y669752D01*
X729270Y669779D01*
X729199Y669787D01*
X729167Y669795D01*
X729144Y669793D01*
X729103Y669797D01*
X717260Y669797D01*
X717189Y669786D01*
X717118Y669784D01*
X717069Y669766D01*
X717017Y669758D01*
X716954Y669724D01*
X716887Y669699D01*
X716846Y669667D01*
X716800Y669642D01*
X716751Y669590D01*
X716695Y669546D01*
X716666Y669502D01*
X716631Y669464D01*
X716600Y669399D01*
X716562Y669339D01*
X716549Y669288D01*
X716527Y669241D01*
X716519Y669170D01*
X716501Y669100D01*
X716506Y669048D01*
X716500Y668997D01*
X716515Y668926D01*
X716521Y668855D01*
X716541Y668807D01*
X716552Y668756D01*
X716589Y668695D01*
X716617Y668629D01*
X716662Y668573D01*
X716678Y668545D01*
X716696Y668530D01*
X716722Y668498D01*
X718885Y666335D01*
X720265Y663003D01*
X720265Y659397D01*
X718885Y656065D01*
X716335Y653515D01*
X713003Y652135D01*
X709397Y652135D01*
X706065Y653515D01*
X703515Y656065D01*
X702135Y659397D01*
X702135Y663003D01*
X703515Y666335D01*
X705678Y668498D01*
X705720Y668556D01*
X705769Y668608D01*
X705791Y668655D01*
X705822Y668697D01*
X705843Y668766D01*
X705873Y668831D01*
X705879Y668883D01*
X705894Y668933D01*
X705892Y669004D01*
X705900Y669075D01*
X705889Y669126D01*
X705888Y669178D01*
X705863Y669246D01*
X705848Y669316D01*
X705821Y669361D01*
X705803Y669409D01*
X705758Y669465D01*
X705722Y669527D01*
X705682Y669561D01*
X705650Y669601D01*
X705589Y669640D01*
X705535Y669687D01*
X705487Y669706D01*
X705443Y669734D01*
X705373Y669752D01*
X705307Y669779D01*
X705235Y669787D01*
X705204Y669795D01*
X705181Y669793D01*
X705140Y669797D01*
X691860Y669797D01*
X691789Y669786D01*
X691718Y669784D01*
X691669Y669766D01*
X691617Y669758D01*
X691554Y669724D01*
X691487Y669699D01*
X691446Y669667D01*
X691400Y669642D01*
X691351Y669590D01*
X691295Y669546D01*
X691266Y669502D01*
X691231Y669464D01*
X691200Y669399D01*
X691162Y669339D01*
X691149Y669288D01*
X691127Y669241D01*
X691119Y669170D01*
X691101Y669100D01*
X691106Y669048D01*
X691100Y668997D01*
X691115Y668926D01*
X691121Y668855D01*
X691141Y668807D01*
X691152Y668756D01*
X691189Y668695D01*
X691217Y668629D01*
X691262Y668573D01*
X691278Y668545D01*
X691296Y668530D01*
X691322Y668498D01*
X693485Y666335D01*
X694865Y663003D01*
X694865Y659397D01*
X693485Y656065D01*
X690935Y653515D01*
X687603Y652135D01*
X683997Y652135D01*
X680665Y653515D01*
X678115Y656065D01*
X676735Y659397D01*
X676735Y663003D01*
X678115Y666335D01*
X680278Y668498D01*
X680320Y668556D01*
X680369Y668608D01*
X680391Y668655D01*
X680422Y668697D01*
X680443Y668766D01*
X680473Y668831D01*
X680479Y668883D01*
X680494Y668933D01*
X680492Y669004D01*
X680500Y669075D01*
X680489Y669126D01*
X680488Y669178D01*
X680463Y669246D01*
X680448Y669316D01*
X680421Y669361D01*
X680403Y669409D01*
X680358Y669465D01*
X680322Y669527D01*
X680282Y669561D01*
X680250Y669601D01*
X680189Y669640D01*
X680135Y669687D01*
X680087Y669706D01*
X680043Y669734D01*
X679973Y669752D01*
X679907Y669779D01*
X679835Y669787D01*
X679804Y669795D01*
X679781Y669793D01*
X679740Y669797D01*
X667897Y669797D01*
X667826Y669786D01*
X667754Y669784D01*
X667705Y669766D01*
X667654Y669758D01*
X667591Y669724D01*
X667523Y669699D01*
X667483Y669667D01*
X667437Y669642D01*
X667387Y669590D01*
X667331Y669546D01*
X667303Y669502D01*
X667267Y669464D01*
X667237Y669399D01*
X667198Y669339D01*
X667186Y669288D01*
X667164Y669241D01*
X667156Y669170D01*
X667138Y669100D01*
X667142Y669048D01*
X667137Y668997D01*
X667152Y668926D01*
X667157Y668855D01*
X667178Y668807D01*
X667189Y668756D01*
X667226Y668695D01*
X667254Y668629D01*
X667299Y668573D01*
X667315Y668545D01*
X667333Y668530D01*
X667359Y668498D01*
X668089Y667767D01*
X669022Y666483D01*
X669742Y665070D01*
X670233Y663561D01*
X670365Y662723D01*
X661162Y662723D01*
X661142Y662720D01*
X661123Y662722D01*
X661021Y662700D01*
X660919Y662683D01*
X660902Y662674D01*
X660882Y662670D01*
X660793Y662617D01*
X660702Y662568D01*
X660688Y662554D01*
X660671Y662544D01*
X660604Y662465D01*
X660533Y662390D01*
X660524Y662372D01*
X660511Y662357D01*
X660473Y662261D01*
X660429Y662167D01*
X660427Y662147D01*
X660419Y662129D01*
X660401Y661962D01*
X660401Y661199D01*
X660399Y661199D01*
X660399Y661962D01*
X660396Y661982D01*
X660398Y662001D01*
X660376Y662103D01*
X660359Y662205D01*
X660350Y662222D01*
X660346Y662242D01*
X660293Y662331D01*
X660244Y662422D01*
X660230Y662436D01*
X660220Y662453D01*
X660141Y662520D01*
X660066Y662591D01*
X660048Y662600D01*
X660033Y662613D01*
X659937Y662652D01*
X659843Y662695D01*
X659823Y662697D01*
X659805Y662705D01*
X659638Y662723D01*
X650435Y662723D01*
X650567Y663561D01*
X651058Y665070D01*
X651778Y666483D01*
X652711Y667767D01*
X653441Y668498D01*
X653483Y668556D01*
X653533Y668608D01*
X653555Y668655D01*
X653585Y668697D01*
X653606Y668766D01*
X653636Y668831D01*
X653642Y668883D01*
X653657Y668933D01*
X653655Y669004D01*
X653663Y669075D01*
X653652Y669126D01*
X653651Y669178D01*
X653626Y669246D01*
X653611Y669316D01*
X653584Y669361D01*
X653567Y669409D01*
X653522Y669465D01*
X653485Y669527D01*
X653445Y669561D01*
X653413Y669601D01*
X653353Y669640D01*
X653298Y669687D01*
X653250Y669706D01*
X653206Y669734D01*
X653136Y669752D01*
X653070Y669779D01*
X652999Y669787D01*
X652967Y669795D01*
X652944Y669793D01*
X652903Y669797D01*
X642497Y669797D01*
X642426Y669786D01*
X642354Y669784D01*
X642305Y669766D01*
X642254Y669758D01*
X642191Y669724D01*
X642123Y669699D01*
X642083Y669667D01*
X642037Y669642D01*
X641987Y669590D01*
X641931Y669546D01*
X641903Y669502D01*
X641867Y669464D01*
X641837Y669399D01*
X641798Y669339D01*
X641786Y669288D01*
X641764Y669241D01*
X641756Y669170D01*
X641738Y669100D01*
X641742Y669048D01*
X641737Y668997D01*
X641752Y668926D01*
X641757Y668855D01*
X641778Y668807D01*
X641789Y668756D01*
X641826Y668695D01*
X641854Y668629D01*
X641899Y668573D01*
X641915Y668545D01*
X641933Y668530D01*
X641959Y668498D01*
X642689Y667767D01*
X643622Y666483D01*
X644342Y665070D01*
X644833Y663561D01*
X644965Y662723D01*
X635762Y662723D01*
X635742Y662720D01*
X635723Y662722D01*
X635621Y662700D01*
X635519Y662683D01*
X635502Y662674D01*
X635482Y662670D01*
X635393Y662617D01*
X635302Y662568D01*
X635288Y662554D01*
X635271Y662544D01*
X635204Y662465D01*
X635133Y662390D01*
X635124Y662372D01*
X635111Y662357D01*
X635073Y662261D01*
X635029Y662167D01*
X635027Y662147D01*
X635019Y662129D01*
X635001Y661962D01*
X635001Y661199D01*
X634999Y661199D01*
X634999Y661962D01*
X634996Y661982D01*
X634998Y662001D01*
X634976Y662103D01*
X634959Y662205D01*
X634950Y662222D01*
X634946Y662242D01*
X634893Y662331D01*
X634844Y662422D01*
X634830Y662436D01*
X634820Y662453D01*
X634741Y662520D01*
X634666Y662591D01*
X634648Y662600D01*
X634633Y662613D01*
X634537Y662652D01*
X634443Y662695D01*
X634423Y662697D01*
X634405Y662705D01*
X634238Y662723D01*
X625035Y662723D01*
X625167Y663561D01*
X625658Y665070D01*
X626378Y666483D01*
X627311Y667767D01*
X628041Y668498D01*
X628083Y668556D01*
X628133Y668608D01*
X628155Y668655D01*
X628185Y668697D01*
X628206Y668766D01*
X628236Y668831D01*
X628242Y668883D01*
X628257Y668933D01*
X628255Y669004D01*
X628263Y669075D01*
X628252Y669126D01*
X628251Y669178D01*
X628226Y669246D01*
X628211Y669316D01*
X628184Y669361D01*
X628167Y669409D01*
X628122Y669465D01*
X628085Y669527D01*
X628045Y669561D01*
X628013Y669601D01*
X627953Y669640D01*
X627898Y669687D01*
X627850Y669706D01*
X627806Y669734D01*
X627736Y669752D01*
X627670Y669779D01*
X627599Y669787D01*
X627567Y669795D01*
X627544Y669793D01*
X627503Y669797D01*
X617097Y669797D01*
X617026Y669786D01*
X616954Y669784D01*
X616905Y669766D01*
X616854Y669758D01*
X616791Y669724D01*
X616723Y669699D01*
X616683Y669667D01*
X616637Y669642D01*
X616587Y669590D01*
X616531Y669546D01*
X616503Y669502D01*
X616467Y669464D01*
X616437Y669399D01*
X616398Y669339D01*
X616386Y669288D01*
X616364Y669241D01*
X616356Y669170D01*
X616338Y669100D01*
X616342Y669048D01*
X616337Y668997D01*
X616352Y668926D01*
X616357Y668855D01*
X616378Y668807D01*
X616389Y668756D01*
X616426Y668695D01*
X616454Y668629D01*
X616499Y668573D01*
X616515Y668545D01*
X616533Y668530D01*
X616559Y668498D01*
X617289Y667767D01*
X618222Y666483D01*
X618942Y665070D01*
X619433Y663561D01*
X619565Y662723D01*
X610362Y662723D01*
X610342Y662720D01*
X610323Y662722D01*
X610221Y662700D01*
X610119Y662683D01*
X610102Y662674D01*
X610082Y662670D01*
X609993Y662617D01*
X609902Y662568D01*
X609888Y662554D01*
X609871Y662544D01*
X609804Y662465D01*
X609733Y662390D01*
X609724Y662372D01*
X609711Y662357D01*
X609673Y662261D01*
X609629Y662167D01*
X609627Y662147D01*
X609619Y662129D01*
X609601Y661962D01*
X609601Y661199D01*
X609599Y661199D01*
X609599Y661962D01*
X609596Y661982D01*
X609598Y662001D01*
X609576Y662103D01*
X609559Y662205D01*
X609550Y662222D01*
X609546Y662242D01*
X609493Y662331D01*
X609444Y662422D01*
X609430Y662436D01*
X609420Y662453D01*
X609341Y662520D01*
X609266Y662591D01*
X609248Y662600D01*
X609233Y662613D01*
X609137Y662652D01*
X609043Y662695D01*
X609023Y662697D01*
X609005Y662705D01*
X608838Y662723D01*
X599635Y662723D01*
X599767Y663561D01*
X600258Y665070D01*
X600978Y666483D01*
X601911Y667767D01*
X602641Y668498D01*
X602683Y668556D01*
X602733Y668608D01*
X602755Y668655D01*
X602785Y668697D01*
X602806Y668766D01*
X602836Y668831D01*
X602842Y668883D01*
X602857Y668933D01*
X602855Y669004D01*
X602863Y669075D01*
X602852Y669126D01*
X602851Y669178D01*
X602826Y669246D01*
X602811Y669316D01*
X602784Y669361D01*
X602767Y669409D01*
X602722Y669465D01*
X602685Y669527D01*
X602645Y669561D01*
X602613Y669601D01*
X602553Y669640D01*
X602498Y669687D01*
X602450Y669706D01*
X602406Y669734D01*
X602336Y669752D01*
X602270Y669779D01*
X602199Y669787D01*
X602167Y669795D01*
X602144Y669793D01*
X602103Y669797D01*
X590260Y669797D01*
X590189Y669786D01*
X590118Y669784D01*
X590069Y669766D01*
X590017Y669758D01*
X589954Y669724D01*
X589887Y669699D01*
X589846Y669667D01*
X589800Y669642D01*
X589751Y669590D01*
X589695Y669546D01*
X589666Y669502D01*
X589631Y669464D01*
X589600Y669399D01*
X589562Y669339D01*
X589549Y669288D01*
X589527Y669241D01*
X589519Y669170D01*
X589501Y669100D01*
X589506Y669048D01*
X589500Y668997D01*
X589515Y668926D01*
X589521Y668855D01*
X589541Y668807D01*
X589552Y668756D01*
X589589Y668695D01*
X589617Y668629D01*
X589662Y668573D01*
X589678Y668545D01*
X589696Y668530D01*
X589722Y668498D01*
X591885Y666335D01*
X593265Y663003D01*
X593265Y659397D01*
X591885Y656065D01*
X589335Y653515D01*
X586449Y652320D01*
X586349Y652258D01*
X586249Y652198D01*
X586245Y652194D01*
X586240Y652190D01*
X586165Y652101D01*
X586089Y652011D01*
X586087Y652006D01*
X586083Y652001D01*
X586041Y651893D01*
X585997Y651783D01*
X585996Y651776D01*
X585995Y651771D01*
X585994Y651753D01*
X585979Y651617D01*
X585979Y230701D01*
X379692Y24414D01*
X379650Y24356D01*
X379601Y24304D01*
X379579Y24257D01*
X379549Y24215D01*
X379528Y24146D01*
X379497Y24081D01*
X379492Y24029D01*
X379476Y23979D01*
X379478Y23908D01*
X379470Y23837D01*
X379481Y23786D01*
X379483Y23734D01*
X379507Y23666D01*
X379522Y23596D01*
X379549Y23552D01*
X379567Y23503D01*
X379612Y23447D01*
X379649Y23385D01*
X379688Y23351D01*
X379721Y23311D01*
X379781Y23272D01*
X379836Y23225D01*
X379884Y23206D01*
X379928Y23178D01*
X379997Y23160D01*
X380064Y23133D01*
X380135Y23125D01*
X380166Y23117D01*
X380190Y23119D01*
X380230Y23115D01*
X383072Y23115D01*
X386900Y21529D01*
X389829Y18600D01*
X391415Y14772D01*
X391415Y10628D01*
X389829Y6800D01*
X386900Y3871D01*
X383072Y2285D01*
X378928Y2285D01*
X375100Y3871D01*
X372171Y6800D01*
X371035Y9542D01*
X370984Y9625D01*
X370938Y9711D01*
X370919Y9729D01*
X370906Y9751D01*
X370831Y9813D01*
X370760Y9880D01*
X370736Y9891D01*
X370716Y9908D01*
X370625Y9943D01*
X370537Y9984D01*
X370511Y9987D01*
X370487Y9996D01*
X370389Y10000D01*
X370293Y10011D01*
X370267Y10005D01*
X370241Y10006D01*
X370147Y9979D01*
X370052Y9959D01*
X370030Y9945D01*
X370005Y9938D01*
X369925Y9882D01*
X369841Y9832D01*
X369824Y9813D01*
X369803Y9798D01*
X369744Y9719D01*
X369681Y9646D01*
X369671Y9621D01*
X369656Y9600D01*
X369626Y9508D01*
X369589Y9417D01*
X369586Y9385D01*
X369580Y9366D01*
X369580Y9333D01*
X369571Y9251D01*
X369571Y6673D01*
X364960Y2062D01*
X364918Y2004D01*
X364869Y1952D01*
X364847Y1905D01*
X364817Y1863D01*
X364796Y1794D01*
X364765Y1729D01*
X364760Y1677D01*
X364744Y1627D01*
X364746Y1556D01*
X364738Y1485D01*
X364749Y1434D01*
X364751Y1382D01*
X364775Y1314D01*
X364790Y1244D01*
X364817Y1199D01*
X364835Y1151D01*
X364880Y1095D01*
X364917Y1033D01*
X364956Y999D01*
X364989Y959D01*
X365049Y920D01*
X365104Y873D01*
X365152Y854D01*
X365196Y826D01*
X365265Y808D01*
X365332Y781D01*
X365403Y773D01*
X365434Y765D01*
X365458Y767D01*
X365498Y763D01*
X577857Y763D01*
X577948Y777D01*
X578038Y785D01*
X578068Y797D01*
X578100Y802D01*
X578181Y845D01*
X578265Y881D01*
X578297Y907D01*
X578318Y918D01*
X578340Y941D01*
X578396Y986D01*
X722153Y144742D01*
X722220Y144836D01*
X722290Y144931D01*
X722292Y144937D01*
X722296Y144942D01*
X722330Y145053D01*
X722367Y145165D01*
X722367Y145171D01*
X722368Y145177D01*
X722365Y145293D01*
X722364Y145411D01*
X722362Y145418D01*
X722362Y145423D01*
X722356Y145441D01*
X722318Y145572D01*
X721475Y147605D01*
X721475Y151395D01*
X722925Y154895D01*
X725605Y157575D01*
X729105Y159025D01*
X732895Y159025D01*
X736395Y157575D01*
X739075Y154895D01*
X740229Y152109D01*
X740291Y152009D01*
X740350Y151909D01*
X740355Y151905D01*
X740359Y151900D01*
X740449Y151825D01*
X740537Y151749D01*
X740543Y151747D01*
X740548Y151743D01*
X740656Y151701D01*
X740766Y151657D01*
X740773Y151656D01*
X740778Y151655D01*
X740796Y151654D01*
X740932Y151639D01*
X754641Y151639D01*
X754732Y151653D01*
X754822Y151661D01*
X754852Y151673D01*
X754884Y151678D01*
X754965Y151721D01*
X755049Y151757D01*
X755081Y151783D01*
X755102Y151794D01*
X755124Y151817D01*
X755180Y151862D01*
X823901Y220583D01*
X823969Y220677D01*
X824039Y220772D01*
X824041Y220778D01*
X824045Y220783D01*
X824079Y220894D01*
X824115Y221006D01*
X824115Y221012D01*
X824117Y221018D01*
X824114Y221135D01*
X824113Y221252D01*
X824111Y221259D01*
X824111Y221264D01*
X824104Y221281D01*
X824066Y221413D01*
X823075Y223805D01*
X823075Y227595D01*
X824525Y231095D01*
X827205Y233775D01*
X830705Y235225D01*
X834495Y235225D01*
X837995Y233775D01*
X840675Y231095D01*
X842125Y227595D01*
X842125Y223805D01*
X840675Y220305D01*
X837995Y217625D01*
X834495Y216175D01*
X830705Y216175D01*
X827821Y217370D01*
X827707Y217397D01*
X827594Y217425D01*
X827587Y217425D01*
X827581Y217426D01*
X827465Y217415D01*
X827348Y217406D01*
X827343Y217404D01*
X827336Y217403D01*
X827229Y217355D01*
X827122Y217310D01*
X827116Y217305D01*
X827112Y217303D01*
X827098Y217291D01*
X826991Y217205D01*
X760438Y150652D01*
X760427Y150636D01*
X760411Y150624D01*
X760355Y150536D01*
X760295Y150453D01*
X760289Y150434D01*
X760278Y150417D01*
X760253Y150316D01*
X760222Y150217D01*
X760223Y150198D01*
X760218Y150178D01*
X760226Y150075D01*
X760229Y149972D01*
X760236Y149953D01*
X760237Y149933D01*
X760277Y149838D01*
X760313Y149741D01*
X760326Y149725D01*
X760333Y149707D01*
X760438Y149576D01*
X827859Y82155D01*
X827953Y82087D01*
X828048Y82017D01*
X828054Y82015D01*
X828059Y82011D01*
X828170Y81977D01*
X828282Y81940D01*
X828288Y81940D01*
X828294Y81939D01*
X828411Y81942D01*
X828528Y81943D01*
X828535Y81945D01*
X828540Y81945D01*
X828558Y81951D01*
X828689Y81989D01*
X830705Y82825D01*
X834495Y82825D01*
X837995Y81375D01*
X840675Y78695D01*
X842125Y75195D01*
X842125Y71405D01*
X840675Y67905D01*
X837995Y65225D01*
X834495Y63775D01*
X830705Y63775D01*
X827205Y65225D01*
X824525Y67905D01*
X823075Y71405D01*
X823075Y75195D01*
X824426Y78456D01*
X824453Y78569D01*
X824481Y78683D01*
X824481Y78689D01*
X824482Y78695D01*
X824471Y78812D01*
X824462Y78928D01*
X824460Y78934D01*
X824459Y78940D01*
X824411Y79047D01*
X824366Y79154D01*
X824361Y79160D01*
X824359Y79165D01*
X824346Y79178D01*
X824261Y79285D01*
X756704Y146842D01*
X756630Y146895D01*
X756560Y146955D01*
X756530Y146967D01*
X756504Y146986D01*
X756417Y147013D01*
X756332Y147047D01*
X756291Y147051D01*
X756269Y147058D01*
X756237Y147057D01*
X756165Y147065D01*
X740810Y147065D01*
X740695Y147046D01*
X740579Y147029D01*
X740573Y147027D01*
X740567Y147026D01*
X740464Y146971D01*
X740359Y146918D01*
X740355Y146913D01*
X740350Y146910D01*
X740270Y146826D01*
X740187Y146742D01*
X740184Y146736D01*
X740180Y146732D01*
X740172Y146715D01*
X740106Y146595D01*
X739075Y144105D01*
X736395Y141425D01*
X732895Y139975D01*
X729105Y139975D01*
X725861Y141319D01*
X725748Y141346D01*
X725634Y141374D01*
X725628Y141374D01*
X725622Y141375D01*
X725505Y141364D01*
X725389Y141355D01*
X725383Y141353D01*
X725377Y141352D01*
X725270Y141304D01*
X725163Y141259D01*
X725157Y141254D01*
X725152Y141252D01*
X725139Y141239D01*
X725032Y141154D01*
X580067Y-3811D01*
X124021Y-3811D01*
G37*
%LPD*%
%LPC*%
G36*
X490753Y2539D02*
X490753Y2539D01*
X482350Y6020D01*
X475920Y12450D01*
X472439Y20853D01*
X472439Y29947D01*
X475920Y38350D01*
X482350Y44780D01*
X490753Y48261D01*
X499847Y48261D01*
X508250Y44780D01*
X514680Y38350D01*
X518161Y29947D01*
X518161Y20853D01*
X514680Y12450D01*
X508250Y6020D01*
X499847Y2539D01*
X490753Y2539D01*
G37*
%LPD*%
%LPC*%
G36*
X490753Y180339D02*
X490753Y180339D01*
X482350Y183820D01*
X475920Y190250D01*
X472439Y198653D01*
X472439Y207747D01*
X475920Y216150D01*
X482350Y222580D01*
X490753Y226061D01*
X499847Y226061D01*
X508250Y222580D01*
X514680Y216150D01*
X518161Y207747D01*
X518161Y198653D01*
X514680Y190250D01*
X508250Y183820D01*
X499847Y180339D01*
X490753Y180339D01*
G37*
%LPD*%
%LPC*%
G36*
X34007Y4825D02*
X34007Y4825D01*
X26445Y7958D01*
X20658Y13745D01*
X17525Y21307D01*
X17525Y29493D01*
X20658Y37055D01*
X26445Y42842D01*
X34007Y45975D01*
X42193Y45975D01*
X49755Y42842D01*
X55542Y37055D01*
X58675Y29493D01*
X58675Y21307D01*
X55542Y13745D01*
X49755Y7958D01*
X42193Y4825D01*
X34007Y4825D01*
G37*
%LPD*%
%LPC*%
G36*
X34007Y182625D02*
X34007Y182625D01*
X26445Y185758D01*
X20658Y191545D01*
X17525Y199107D01*
X17525Y207293D01*
X20658Y214855D01*
X26445Y220642D01*
X34007Y223775D01*
X42193Y223775D01*
X49755Y220642D01*
X55542Y214855D01*
X58675Y207293D01*
X58675Y199107D01*
X55542Y191545D01*
X49755Y185758D01*
X42193Y182625D01*
X34007Y182625D01*
G37*
%LPD*%
%LPC*%
G36*
X34267Y625925D02*
X34267Y625925D01*
X26815Y629012D01*
X21112Y634715D01*
X18025Y642167D01*
X18025Y650233D01*
X21112Y657685D01*
X26815Y663388D01*
X34267Y666475D01*
X42333Y666475D01*
X49785Y663388D01*
X55488Y657685D01*
X58575Y650233D01*
X58575Y642167D01*
X55488Y634715D01*
X49785Y629012D01*
X42333Y625925D01*
X34267Y625925D01*
G37*
%LPD*%
%LPC*%
G36*
X948267Y622925D02*
X948267Y622925D01*
X940815Y626012D01*
X935112Y631715D01*
X932025Y639167D01*
X932025Y647233D01*
X935112Y654685D01*
X940815Y660388D01*
X948267Y663475D01*
X956333Y663475D01*
X963785Y660388D01*
X969488Y654685D01*
X972575Y647233D01*
X972575Y639167D01*
X969488Y631715D01*
X963785Y626012D01*
X956333Y622925D01*
X948267Y622925D01*
G37*
%LPD*%
%LPC*%
G36*
X948267Y369325D02*
X948267Y369325D01*
X940815Y372412D01*
X935112Y378115D01*
X932025Y385567D01*
X932025Y393633D01*
X935112Y401085D01*
X940815Y406788D01*
X948267Y409875D01*
X956333Y409875D01*
X963785Y406788D01*
X969488Y401085D01*
X972575Y393633D01*
X972575Y385567D01*
X969488Y378115D01*
X963785Y372412D01*
X956333Y369325D01*
X948267Y369325D01*
G37*
%LPD*%
%LPC*%
G36*
X34267Y369325D02*
X34267Y369325D01*
X26815Y372412D01*
X21112Y378115D01*
X18025Y385567D01*
X18025Y393633D01*
X21112Y401085D01*
X26815Y406788D01*
X34267Y409875D01*
X42333Y409875D01*
X49785Y406788D01*
X55488Y401085D01*
X58575Y393633D01*
X58575Y385567D01*
X55488Y378115D01*
X49785Y372412D01*
X42333Y369325D01*
X34267Y369325D01*
G37*
%LPD*%
%LPC*%
G36*
X404328Y2285D02*
X404328Y2285D01*
X400500Y3871D01*
X397571Y6800D01*
X395985Y10628D01*
X395985Y14772D01*
X397571Y18600D01*
X400500Y21529D01*
X404328Y23115D01*
X408472Y23115D01*
X412300Y21529D01*
X415229Y18600D01*
X416815Y14772D01*
X416815Y10628D01*
X415229Y6800D01*
X412300Y3871D01*
X408472Y2285D01*
X404328Y2285D01*
G37*
%LPD*%
%LPC*%
G36*
X175728Y2285D02*
X175728Y2285D01*
X171900Y3871D01*
X168971Y6800D01*
X167385Y10628D01*
X167385Y14772D01*
X168971Y18600D01*
X171900Y21529D01*
X175728Y23115D01*
X179872Y23115D01*
X183700Y21529D01*
X186629Y18600D01*
X188215Y14772D01*
X188215Y10628D01*
X186629Y6800D01*
X183700Y3871D01*
X179872Y2285D01*
X175728Y2285D01*
G37*
%LPD*%
%LPC*%
G36*
X455128Y205485D02*
X455128Y205485D01*
X451300Y207071D01*
X448371Y210000D01*
X446785Y213828D01*
X446785Y217972D01*
X448371Y221800D01*
X451300Y224729D01*
X455128Y226315D01*
X459272Y226315D01*
X463100Y224729D01*
X466029Y221800D01*
X467615Y217972D01*
X467615Y213828D01*
X466029Y210000D01*
X463100Y207071D01*
X459272Y205485D01*
X455128Y205485D01*
G37*
%LPD*%
%LPC*%
G36*
X226528Y205485D02*
X226528Y205485D01*
X222700Y207071D01*
X219771Y210000D01*
X218185Y213828D01*
X218185Y217972D01*
X219771Y221800D01*
X222700Y224729D01*
X226528Y226315D01*
X230672Y226315D01*
X234500Y224729D01*
X237429Y221800D01*
X239015Y217972D01*
X239015Y213828D01*
X237429Y210000D01*
X234500Y207071D01*
X230672Y205485D01*
X226528Y205485D01*
G37*
%LPD*%
%LPC*%
G36*
X429728Y205485D02*
X429728Y205485D01*
X425900Y207071D01*
X422971Y210000D01*
X421385Y213828D01*
X421385Y217972D01*
X422971Y221800D01*
X425900Y224729D01*
X429728Y226315D01*
X433872Y226315D01*
X437700Y224729D01*
X440629Y221800D01*
X442215Y217972D01*
X442215Y213828D01*
X440629Y210000D01*
X437700Y207071D01*
X433872Y205485D01*
X429728Y205485D01*
G37*
%LPD*%
%LPC*%
G36*
X378928Y205485D02*
X378928Y205485D01*
X375100Y207071D01*
X372171Y210000D01*
X370585Y213828D01*
X370585Y217972D01*
X372171Y221800D01*
X375100Y224729D01*
X378928Y226315D01*
X383072Y226315D01*
X386900Y224729D01*
X389829Y221800D01*
X391415Y217972D01*
X391415Y213828D01*
X389829Y210000D01*
X386900Y207071D01*
X383072Y205485D01*
X378928Y205485D01*
G37*
%LPD*%
%LPC*%
G36*
X353528Y205485D02*
X353528Y205485D01*
X349700Y207071D01*
X346771Y210000D01*
X345185Y213828D01*
X345185Y217972D01*
X346771Y221800D01*
X349700Y224729D01*
X353528Y226315D01*
X357672Y226315D01*
X361500Y224729D01*
X364429Y221800D01*
X366015Y217972D01*
X366015Y213828D01*
X364429Y210000D01*
X361500Y207071D01*
X357672Y205485D01*
X353528Y205485D01*
G37*
%LPD*%
%LPC*%
G36*
X328128Y205485D02*
X328128Y205485D01*
X324300Y207071D01*
X321371Y210000D01*
X319785Y213828D01*
X319785Y217972D01*
X321371Y221800D01*
X324300Y224729D01*
X328128Y226315D01*
X332272Y226315D01*
X336100Y224729D01*
X339029Y221800D01*
X340615Y217972D01*
X340615Y213828D01*
X339029Y210000D01*
X336100Y207071D01*
X332272Y205485D01*
X328128Y205485D01*
G37*
%LPD*%
%LPC*%
G36*
X277328Y205485D02*
X277328Y205485D01*
X273500Y207071D01*
X270571Y210000D01*
X268985Y213828D01*
X268985Y217972D01*
X270571Y221800D01*
X273500Y224729D01*
X277328Y226315D01*
X281472Y226315D01*
X285300Y224729D01*
X288229Y221800D01*
X289815Y217972D01*
X289815Y213828D01*
X288229Y210000D01*
X285300Y207071D01*
X281472Y205485D01*
X277328Y205485D01*
G37*
%LPD*%
%LPC*%
G36*
X251928Y205485D02*
X251928Y205485D01*
X248100Y207071D01*
X245171Y210000D01*
X243585Y213828D01*
X243585Y217972D01*
X245171Y221800D01*
X248100Y224729D01*
X251928Y226315D01*
X256072Y226315D01*
X259900Y224729D01*
X262829Y221800D01*
X264415Y217972D01*
X264415Y213828D01*
X262829Y210000D01*
X259900Y207071D01*
X256072Y205485D01*
X251928Y205485D01*
G37*
%LPD*%
%LPC*%
G36*
X201128Y205485D02*
X201128Y205485D01*
X197300Y207071D01*
X194371Y210000D01*
X192785Y213828D01*
X192785Y217972D01*
X194371Y221800D01*
X197300Y224729D01*
X201128Y226315D01*
X205272Y226315D01*
X209100Y224729D01*
X212029Y221800D01*
X213615Y217972D01*
X213615Y213828D01*
X212029Y210000D01*
X209100Y207071D01*
X205272Y205485D01*
X201128Y205485D01*
G37*
%LPD*%
%LPC*%
G36*
X404328Y205485D02*
X404328Y205485D01*
X400500Y207071D01*
X397571Y210000D01*
X395985Y213828D01*
X395985Y217972D01*
X397571Y221800D01*
X400500Y224729D01*
X404328Y226315D01*
X408472Y226315D01*
X412300Y224729D01*
X415229Y221800D01*
X416815Y217972D01*
X416815Y213828D01*
X415229Y210000D01*
X412300Y207071D01*
X408472Y205485D01*
X404328Y205485D01*
G37*
%LPD*%
%LPC*%
G36*
X302728Y205485D02*
X302728Y205485D01*
X298900Y207071D01*
X295971Y210000D01*
X294385Y213828D01*
X294385Y217972D01*
X295971Y221800D01*
X298900Y224729D01*
X302728Y226315D01*
X306872Y226315D01*
X310700Y224729D01*
X313629Y221800D01*
X315215Y217972D01*
X315215Y213828D01*
X313629Y210000D01*
X310700Y207071D01*
X306872Y205485D01*
X302728Y205485D01*
G37*
%LPD*%
%LPC*%
G36*
X201128Y2285D02*
X201128Y2285D01*
X197300Y3871D01*
X194371Y6800D01*
X192785Y10628D01*
X192785Y14772D01*
X194371Y18600D01*
X197300Y21529D01*
X201128Y23115D01*
X205272Y23115D01*
X209100Y21529D01*
X212029Y18600D01*
X213615Y14772D01*
X213615Y10628D01*
X212029Y6800D01*
X209100Y3871D01*
X205272Y2285D01*
X201128Y2285D01*
G37*
%LPD*%
%LPC*%
G36*
X226528Y2285D02*
X226528Y2285D01*
X222700Y3871D01*
X219771Y6800D01*
X218185Y10628D01*
X218185Y14772D01*
X219771Y18600D01*
X222700Y21529D01*
X226528Y23115D01*
X230672Y23115D01*
X234500Y21529D01*
X237429Y18600D01*
X239015Y14772D01*
X239015Y10628D01*
X237429Y6800D01*
X234500Y3871D01*
X230672Y2285D01*
X226528Y2285D01*
G37*
%LPD*%
%LPC*%
G36*
X251928Y2285D02*
X251928Y2285D01*
X248100Y3871D01*
X245171Y6800D01*
X243585Y10628D01*
X243585Y14772D01*
X245171Y18600D01*
X248100Y21529D01*
X251928Y23115D01*
X256072Y23115D01*
X259900Y21529D01*
X262829Y18600D01*
X264415Y14772D01*
X264415Y10628D01*
X262829Y6800D01*
X259900Y3871D01*
X256072Y2285D01*
X251928Y2285D01*
G37*
%LPD*%
%LPC*%
G36*
X277328Y2285D02*
X277328Y2285D01*
X273500Y3871D01*
X270571Y6800D01*
X268985Y10628D01*
X268985Y14772D01*
X270571Y18600D01*
X273500Y21529D01*
X277328Y23115D01*
X281472Y23115D01*
X285300Y21529D01*
X288229Y18600D01*
X289815Y14772D01*
X289815Y10628D01*
X288229Y6800D01*
X285300Y3871D01*
X281472Y2285D01*
X277328Y2285D01*
G37*
%LPD*%
%LPC*%
G36*
X302728Y2285D02*
X302728Y2285D01*
X298900Y3871D01*
X295971Y6800D01*
X294385Y10628D01*
X294385Y14772D01*
X295971Y18600D01*
X298900Y21529D01*
X302728Y23115D01*
X306872Y23115D01*
X310700Y21529D01*
X313629Y18600D01*
X315215Y14772D01*
X315215Y10628D01*
X313629Y6800D01*
X310700Y3871D01*
X306872Y2285D01*
X302728Y2285D01*
G37*
%LPD*%
%LPC*%
G36*
X429728Y2285D02*
X429728Y2285D01*
X425900Y3871D01*
X422971Y6800D01*
X421385Y10628D01*
X421385Y14772D01*
X422971Y18600D01*
X425900Y21529D01*
X429728Y23115D01*
X433872Y23115D01*
X437700Y21529D01*
X440629Y18600D01*
X442215Y14772D01*
X442215Y10628D01*
X440629Y6800D01*
X437700Y3871D01*
X433872Y2285D01*
X429728Y2285D01*
G37*
%LPD*%
%LPC*%
G36*
X455128Y2285D02*
X455128Y2285D01*
X451300Y3871D01*
X448371Y6800D01*
X446785Y10628D01*
X446785Y14772D01*
X448371Y18600D01*
X451300Y21529D01*
X455128Y23115D01*
X459272Y23115D01*
X463100Y21529D01*
X466029Y18600D01*
X467615Y14772D01*
X467615Y10628D01*
X466029Y6800D01*
X463100Y3871D01*
X459272Y2285D01*
X455128Y2285D01*
G37*
%LPD*%
%LPC*%
G36*
X1032405Y419375D02*
X1032405Y419375D01*
X1028905Y420825D01*
X1026225Y423505D01*
X1024775Y427005D01*
X1024775Y430795D01*
X1026225Y434295D01*
X1028905Y436975D01*
X1032405Y438425D01*
X1036195Y438425D01*
X1039695Y436975D01*
X1042375Y434295D01*
X1043825Y430795D01*
X1043825Y427005D01*
X1042375Y423505D01*
X1039695Y420825D01*
X1036195Y419375D01*
X1032405Y419375D01*
G37*
%LPD*%
%LPC*%
G36*
X1097405Y419375D02*
X1097405Y419375D01*
X1093905Y420825D01*
X1091225Y423505D01*
X1089775Y427005D01*
X1089775Y430795D01*
X1091225Y434295D01*
X1093905Y436975D01*
X1097405Y438425D01*
X1101195Y438425D01*
X1104695Y436975D01*
X1107375Y434295D01*
X1108825Y430795D01*
X1108825Y427005D01*
X1107375Y423505D01*
X1104695Y420825D01*
X1101195Y419375D01*
X1097405Y419375D01*
G37*
%LPD*%
%LPC*%
G36*
X1097405Y374375D02*
X1097405Y374375D01*
X1093905Y375825D01*
X1091225Y378505D01*
X1089775Y382005D01*
X1089775Y385795D01*
X1091225Y389295D01*
X1093905Y391975D01*
X1097405Y393425D01*
X1101195Y393425D01*
X1104695Y391975D01*
X1107375Y389295D01*
X1108825Y385795D01*
X1108825Y382005D01*
X1107375Y378505D01*
X1104695Y375825D01*
X1101195Y374375D01*
X1097405Y374375D01*
G37*
%LPD*%
%LPC*%
G36*
X765705Y216175D02*
X765705Y216175D01*
X762205Y217625D01*
X759525Y220305D01*
X758075Y223805D01*
X758075Y227595D01*
X759525Y231095D01*
X762205Y233775D01*
X765705Y235225D01*
X769495Y235225D01*
X772995Y233775D01*
X775675Y231095D01*
X777125Y227595D01*
X777125Y223805D01*
X775675Y220305D01*
X772995Y217625D01*
X769495Y216175D01*
X765705Y216175D01*
G37*
%LPD*%
%LPC*%
G36*
X830705Y171175D02*
X830705Y171175D01*
X827205Y172625D01*
X824525Y175305D01*
X823075Y178805D01*
X823075Y182595D01*
X824525Y186095D01*
X827205Y188775D01*
X830705Y190225D01*
X834495Y190225D01*
X837995Y188775D01*
X840675Y186095D01*
X842125Y182595D01*
X842125Y178805D01*
X840675Y175305D01*
X837995Y172625D01*
X834495Y171175D01*
X830705Y171175D01*
G37*
%LPD*%
%LPC*%
G36*
X765705Y171175D02*
X765705Y171175D01*
X762205Y172625D01*
X759525Y175305D01*
X758075Y178805D01*
X758075Y182595D01*
X759525Y186095D01*
X762205Y188775D01*
X765705Y190225D01*
X769495Y190225D01*
X772995Y188775D01*
X775675Y186095D01*
X777125Y182595D01*
X777125Y178805D01*
X775675Y175305D01*
X772995Y172625D01*
X769495Y171175D01*
X765705Y171175D01*
G37*
%LPD*%
%LPC*%
G36*
X1097405Y139975D02*
X1097405Y139975D01*
X1093905Y141425D01*
X1091225Y144105D01*
X1089775Y147605D01*
X1089775Y151395D01*
X1091225Y154895D01*
X1093905Y157575D01*
X1097405Y159025D01*
X1101195Y159025D01*
X1104695Y157575D01*
X1107375Y154895D01*
X1108825Y151395D01*
X1108825Y147605D01*
X1107375Y144105D01*
X1104695Y141425D01*
X1101195Y139975D01*
X1097405Y139975D01*
G37*
%LPD*%
%LPC*%
G36*
X1032405Y139975D02*
X1032405Y139975D01*
X1028905Y141425D01*
X1026225Y144105D01*
X1024775Y147605D01*
X1024775Y151395D01*
X1026225Y154895D01*
X1028905Y157575D01*
X1032405Y159025D01*
X1036195Y159025D01*
X1039695Y157575D01*
X1042375Y154895D01*
X1043825Y151395D01*
X1043825Y147605D01*
X1042375Y144105D01*
X1039695Y141425D01*
X1036195Y139975D01*
X1032405Y139975D01*
G37*
%LPD*%
%LPC*%
G36*
X932305Y139975D02*
X932305Y139975D01*
X928805Y141425D01*
X926125Y144105D01*
X924675Y147605D01*
X924675Y151395D01*
X926125Y154895D01*
X928805Y157575D01*
X932305Y159025D01*
X936095Y159025D01*
X939595Y157575D01*
X942275Y154895D01*
X943725Y151395D01*
X943725Y147605D01*
X942275Y144105D01*
X939595Y141425D01*
X936095Y139975D01*
X932305Y139975D01*
G37*
%LPD*%
%LPC*%
G36*
X867305Y139975D02*
X867305Y139975D01*
X863805Y141425D01*
X861125Y144105D01*
X859675Y147605D01*
X859675Y151395D01*
X861125Y154895D01*
X863805Y157575D01*
X867305Y159025D01*
X871095Y159025D01*
X874595Y157575D01*
X877275Y154895D01*
X878725Y151395D01*
X878725Y147605D01*
X877275Y144105D01*
X874595Y141425D01*
X871095Y139975D01*
X867305Y139975D01*
G37*
%LPD*%
%LPC*%
G36*
X1032405Y94975D02*
X1032405Y94975D01*
X1028905Y96425D01*
X1026225Y99105D01*
X1024775Y102605D01*
X1024775Y106395D01*
X1026225Y109895D01*
X1028905Y112575D01*
X1032405Y114025D01*
X1036195Y114025D01*
X1039695Y112575D01*
X1042375Y109895D01*
X1043825Y106395D01*
X1043825Y102605D01*
X1042375Y99105D01*
X1039695Y96425D01*
X1036195Y94975D01*
X1032405Y94975D01*
G37*
%LPD*%
%LPC*%
G36*
X1097405Y94975D02*
X1097405Y94975D01*
X1093905Y96425D01*
X1091225Y99105D01*
X1089775Y102605D01*
X1089775Y106395D01*
X1091225Y109895D01*
X1093905Y112575D01*
X1097405Y114025D01*
X1101195Y114025D01*
X1104695Y112575D01*
X1107375Y109895D01*
X1108825Y106395D01*
X1108825Y102605D01*
X1107375Y99105D01*
X1104695Y96425D01*
X1101195Y94975D01*
X1097405Y94975D01*
G37*
%LPD*%
%LPC*%
G36*
X664105Y94975D02*
X664105Y94975D01*
X660605Y96425D01*
X657925Y99105D01*
X656475Y102605D01*
X656475Y106395D01*
X657925Y109895D01*
X660605Y112575D01*
X664105Y114025D01*
X667895Y114025D01*
X671395Y112575D01*
X674075Y109895D01*
X675525Y106395D01*
X675525Y102605D01*
X674075Y99105D01*
X671395Y96425D01*
X667895Y94975D01*
X664105Y94975D01*
G37*
%LPD*%
%LPC*%
G36*
X867305Y94975D02*
X867305Y94975D01*
X863805Y96425D01*
X861125Y99105D01*
X859675Y102605D01*
X859675Y106395D01*
X861125Y109895D01*
X863805Y112575D01*
X867305Y114025D01*
X871095Y114025D01*
X874595Y112575D01*
X877275Y109895D01*
X878725Y106395D01*
X878725Y102605D01*
X877275Y99105D01*
X874595Y96425D01*
X871095Y94975D01*
X867305Y94975D01*
G37*
%LPD*%
%LPC*%
G36*
X729105Y94975D02*
X729105Y94975D01*
X725605Y96425D01*
X722925Y99105D01*
X721475Y102605D01*
X721475Y106395D01*
X722925Y109895D01*
X725605Y112575D01*
X729105Y114025D01*
X732895Y114025D01*
X736395Y112575D01*
X739075Y109895D01*
X740525Y106395D01*
X740525Y102605D01*
X739075Y99105D01*
X736395Y96425D01*
X732895Y94975D01*
X729105Y94975D01*
G37*
%LPD*%
%LPC*%
G36*
X932305Y94975D02*
X932305Y94975D01*
X928805Y96425D01*
X926125Y99105D01*
X924675Y102605D01*
X924675Y106395D01*
X926125Y109895D01*
X928805Y112575D01*
X932305Y114025D01*
X936095Y114025D01*
X939595Y112575D01*
X942275Y109895D01*
X943725Y106395D01*
X943725Y102605D01*
X942275Y99105D01*
X939595Y96425D01*
X936095Y94975D01*
X932305Y94975D01*
G37*
%LPD*%
%LPC*%
G36*
X765705Y63775D02*
X765705Y63775D01*
X762205Y65225D01*
X759525Y67905D01*
X758075Y71405D01*
X758075Y75195D01*
X759525Y78695D01*
X762205Y81375D01*
X765705Y82825D01*
X769495Y82825D01*
X772995Y81375D01*
X775675Y78695D01*
X777125Y75195D01*
X777125Y71405D01*
X775675Y67905D01*
X772995Y65225D01*
X769495Y63775D01*
X765705Y63775D01*
G37*
%LPD*%
%LPC*%
G36*
X765705Y18775D02*
X765705Y18775D01*
X762205Y20225D01*
X759525Y22905D01*
X758075Y26405D01*
X758075Y30195D01*
X759525Y33695D01*
X762205Y36375D01*
X765705Y37825D01*
X769495Y37825D01*
X772995Y36375D01*
X775675Y33695D01*
X777125Y30195D01*
X777125Y26405D01*
X775675Y22905D01*
X772995Y20225D01*
X769495Y18775D01*
X765705Y18775D01*
G37*
%LPD*%
%LPC*%
G36*
X830705Y18775D02*
X830705Y18775D01*
X827205Y20225D01*
X824525Y22905D01*
X823075Y26405D01*
X823075Y30195D01*
X824525Y33695D01*
X827205Y36375D01*
X830705Y37825D01*
X834495Y37825D01*
X837995Y36375D01*
X840675Y33695D01*
X842125Y30195D01*
X842125Y26405D01*
X840675Y22905D01*
X837995Y20225D01*
X834495Y18775D01*
X830705Y18775D01*
G37*
%LPD*%
%LPC*%
G36*
X664105Y139975D02*
X664105Y139975D01*
X660605Y141425D01*
X657925Y144105D01*
X656475Y147605D01*
X656475Y151395D01*
X657925Y154895D01*
X660605Y157575D01*
X664105Y159025D01*
X667895Y159025D01*
X671395Y157575D01*
X674075Y154895D01*
X675525Y151395D01*
X675525Y147605D01*
X674075Y144105D01*
X671395Y141425D01*
X667895Y139975D01*
X664105Y139975D01*
G37*
%LPD*%
%LPC*%
G36*
X1037845Y664035D02*
X1037845Y664035D01*
X1032535Y669345D01*
X1032535Y676855D01*
X1037845Y682165D01*
X1045355Y682165D01*
X1050665Y676855D01*
X1050665Y669345D01*
X1045355Y664035D01*
X1037845Y664035D01*
G37*
%LPD*%
%LPC*%
G36*
X153923Y14223D02*
X153923Y14223D01*
X153923Y24032D01*
X155077Y23849D01*
X156788Y23293D01*
X158391Y22476D01*
X159847Y21419D01*
X161119Y20147D01*
X162176Y18691D01*
X162993Y17088D01*
X163549Y15377D01*
X163732Y14223D01*
X153923Y14223D01*
G37*
%LPD*%
%LPC*%
G36*
X141068Y14223D02*
X141068Y14223D01*
X141251Y15377D01*
X141807Y17088D01*
X142624Y18691D01*
X143681Y20147D01*
X144953Y21419D01*
X146409Y22476D01*
X148012Y23293D01*
X149723Y23849D01*
X150877Y24032D01*
X150877Y14223D01*
X141068Y14223D01*
G37*
%LPD*%
%LPC*%
G36*
X1043123Y649223D02*
X1043123Y649223D01*
X1043123Y657781D01*
X1045776Y657781D01*
X1051681Y651876D01*
X1051681Y649223D01*
X1043123Y649223D01*
G37*
%LPD*%
%LPC*%
G36*
X1031519Y649223D02*
X1031519Y649223D01*
X1031519Y651876D01*
X1037424Y657781D01*
X1040077Y657781D01*
X1040077Y649223D01*
X1031519Y649223D01*
G37*
%LPD*%
%LPC*%
G36*
X1043123Y637619D02*
X1043123Y637619D01*
X1043123Y646177D01*
X1051681Y646177D01*
X1051681Y643524D01*
X1045776Y637619D01*
X1043123Y637619D01*
G37*
%LPD*%
%LPC*%
G36*
X1037424Y637619D02*
X1037424Y637619D01*
X1031519Y643524D01*
X1031519Y646177D01*
X1040077Y646177D01*
X1040077Y637619D01*
X1037424Y637619D01*
G37*
%LPD*%
%LPC*%
G36*
X331723Y662723D02*
X331723Y662723D01*
X331723Y671165D01*
X332561Y671033D01*
X334070Y670542D01*
X335483Y669822D01*
X336767Y668889D01*
X337889Y667767D01*
X338822Y666483D01*
X339542Y665070D01*
X340033Y663561D01*
X340165Y662723D01*
X331723Y662723D01*
G37*
%LPD*%
%LPC*%
G36*
X306323Y662723D02*
X306323Y662723D01*
X306323Y671165D01*
X307161Y671033D01*
X308670Y670542D01*
X310083Y669822D01*
X311367Y668889D01*
X312489Y667767D01*
X313422Y666483D01*
X314142Y665070D01*
X314633Y663561D01*
X314765Y662723D01*
X306323Y662723D01*
G37*
%LPD*%
%LPC*%
G36*
X280923Y662723D02*
X280923Y662723D01*
X280923Y671165D01*
X281761Y671033D01*
X283270Y670542D01*
X284683Y669822D01*
X285967Y668889D01*
X287089Y667767D01*
X288022Y666483D01*
X288742Y665070D01*
X289233Y663561D01*
X289365Y662723D01*
X280923Y662723D01*
G37*
%LPD*%
%LPC*%
G36*
X255523Y662723D02*
X255523Y662723D01*
X255523Y671165D01*
X256361Y671033D01*
X257870Y670542D01*
X259283Y669822D01*
X260567Y668889D01*
X261689Y667767D01*
X262622Y666483D01*
X263342Y665070D01*
X263833Y663561D01*
X263965Y662723D01*
X255523Y662723D01*
G37*
%LPD*%
%LPC*%
G36*
X244035Y662723D02*
X244035Y662723D01*
X244167Y663561D01*
X244658Y665070D01*
X245378Y666483D01*
X246311Y667767D01*
X247433Y668889D01*
X248717Y669822D01*
X250130Y670542D01*
X251639Y671033D01*
X252477Y671165D01*
X252477Y662723D01*
X244035Y662723D01*
G37*
%LPD*%
%LPC*%
G36*
X294835Y662723D02*
X294835Y662723D01*
X294967Y663561D01*
X295458Y665070D01*
X296178Y666483D01*
X297111Y667767D01*
X298233Y668889D01*
X299517Y669822D01*
X300930Y670542D01*
X302439Y671033D01*
X303277Y671165D01*
X303277Y662723D01*
X294835Y662723D01*
G37*
%LPD*%
%LPC*%
G36*
X320235Y662723D02*
X320235Y662723D01*
X320367Y663561D01*
X320858Y665070D01*
X321578Y666483D01*
X322511Y667767D01*
X323633Y668889D01*
X324917Y669822D01*
X326330Y670542D01*
X327839Y671033D01*
X328677Y671165D01*
X328677Y662723D01*
X320235Y662723D01*
G37*
%LPD*%
%LPC*%
G36*
X269435Y662723D02*
X269435Y662723D01*
X269567Y663561D01*
X270058Y665070D01*
X270778Y666483D01*
X271711Y667767D01*
X272833Y668889D01*
X274117Y669822D01*
X275530Y670542D01*
X277039Y671033D01*
X277877Y671165D01*
X277877Y662723D01*
X269435Y662723D01*
G37*
%LPD*%
%LPC*%
G36*
X636523Y659677D02*
X636523Y659677D01*
X644965Y659677D01*
X644833Y658839D01*
X644342Y657330D01*
X643622Y655917D01*
X642689Y654633D01*
X641567Y653511D01*
X640283Y652578D01*
X638870Y651858D01*
X637361Y651367D01*
X636523Y651235D01*
X636523Y659677D01*
G37*
%LPD*%
%LPC*%
G36*
X407923Y659677D02*
X407923Y659677D01*
X416365Y659677D01*
X416233Y658839D01*
X415742Y657330D01*
X415022Y655917D01*
X414089Y654633D01*
X412967Y653511D01*
X411683Y652578D01*
X410270Y651858D01*
X408761Y651367D01*
X407923Y651235D01*
X407923Y659677D01*
G37*
%LPD*%
%LPC*%
G36*
X382523Y659677D02*
X382523Y659677D01*
X390965Y659677D01*
X390833Y658839D01*
X390342Y657330D01*
X389622Y655917D01*
X388689Y654633D01*
X387567Y653511D01*
X386283Y652578D01*
X384870Y651858D01*
X383361Y651367D01*
X382523Y651235D01*
X382523Y659677D01*
G37*
%LPD*%
%LPC*%
G36*
X331723Y659677D02*
X331723Y659677D01*
X340165Y659677D01*
X340033Y658839D01*
X339542Y657330D01*
X338822Y655917D01*
X337889Y654633D01*
X336767Y653511D01*
X335483Y652578D01*
X334070Y651858D01*
X332561Y651367D01*
X331723Y651235D01*
X331723Y659677D01*
G37*
%LPD*%
%LPC*%
G36*
X738123Y659677D02*
X738123Y659677D01*
X746565Y659677D01*
X746433Y658839D01*
X745942Y657330D01*
X745222Y655917D01*
X744289Y654633D01*
X743167Y653511D01*
X741883Y652578D01*
X740470Y651858D01*
X738961Y651367D01*
X738123Y651235D01*
X738123Y659677D01*
G37*
%LPD*%
%LPC*%
G36*
X306323Y659677D02*
X306323Y659677D01*
X314765Y659677D01*
X314633Y658839D01*
X314142Y657330D01*
X313422Y655917D01*
X312489Y654633D01*
X311367Y653511D01*
X310083Y652578D01*
X308670Y651858D01*
X307161Y651367D01*
X306323Y651235D01*
X306323Y659677D01*
G37*
%LPD*%
%LPC*%
G36*
X661923Y659677D02*
X661923Y659677D01*
X670365Y659677D01*
X670233Y658839D01*
X669742Y657330D01*
X669022Y655917D01*
X668089Y654633D01*
X666967Y653511D01*
X665683Y652578D01*
X664270Y651858D01*
X662761Y651367D01*
X661923Y651235D01*
X661923Y659677D01*
G37*
%LPD*%
%LPC*%
G36*
X611123Y659677D02*
X611123Y659677D01*
X619565Y659677D01*
X619433Y658839D01*
X618942Y657330D01*
X618222Y655917D01*
X617289Y654633D01*
X616167Y653511D01*
X614883Y652578D01*
X613470Y651858D01*
X611961Y651367D01*
X611123Y651235D01*
X611123Y659677D01*
G37*
%LPD*%
%LPC*%
G36*
X433323Y659677D02*
X433323Y659677D01*
X441765Y659677D01*
X441633Y658839D01*
X441142Y657330D01*
X440422Y655917D01*
X439489Y654633D01*
X438367Y653511D01*
X437083Y652578D01*
X435670Y651858D01*
X434161Y651367D01*
X433323Y651235D01*
X433323Y659677D01*
G37*
%LPD*%
%LPC*%
G36*
X509523Y659677D02*
X509523Y659677D01*
X517965Y659677D01*
X517833Y658839D01*
X517342Y657330D01*
X516622Y655917D01*
X515689Y654633D01*
X514567Y653511D01*
X513283Y652578D01*
X511870Y651858D01*
X510361Y651367D01*
X509523Y651235D01*
X509523Y659677D01*
G37*
%LPD*%
%LPC*%
G36*
X255523Y659677D02*
X255523Y659677D01*
X263965Y659677D01*
X263833Y658839D01*
X263342Y657330D01*
X262622Y655917D01*
X261689Y654633D01*
X260567Y653511D01*
X259283Y652578D01*
X257870Y651858D01*
X256361Y651367D01*
X255523Y651235D01*
X255523Y659677D01*
G37*
%LPD*%
%LPC*%
G36*
X484123Y659677D02*
X484123Y659677D01*
X492565Y659677D01*
X492433Y658839D01*
X491942Y657330D01*
X491222Y655917D01*
X490289Y654633D01*
X489167Y653511D01*
X487883Y652578D01*
X486470Y651858D01*
X484961Y651367D01*
X484123Y651235D01*
X484123Y659677D01*
G37*
%LPD*%
%LPC*%
G36*
X280923Y659677D02*
X280923Y659677D01*
X289365Y659677D01*
X289233Y658839D01*
X288742Y657330D01*
X288022Y655917D01*
X287089Y654633D01*
X285967Y653511D01*
X284683Y652578D01*
X283270Y651858D01*
X281761Y651367D01*
X280923Y651235D01*
X280923Y659677D01*
G37*
%LPD*%
%LPC*%
G36*
X458723Y659677D02*
X458723Y659677D01*
X467165Y659677D01*
X467033Y658839D01*
X466542Y657330D01*
X465822Y655917D01*
X464889Y654633D01*
X463767Y653511D01*
X462483Y652578D01*
X461070Y651858D01*
X459561Y651367D01*
X458723Y651235D01*
X458723Y659677D01*
G37*
%LPD*%
%LPC*%
G36*
X277039Y651367D02*
X277039Y651367D01*
X275530Y651858D01*
X274117Y652578D01*
X272833Y653511D01*
X271711Y654633D01*
X270778Y655917D01*
X270058Y657330D01*
X269567Y658839D01*
X269435Y659677D01*
X277877Y659677D01*
X277877Y651235D01*
X277039Y651367D01*
G37*
%LPD*%
%LPC*%
G36*
X302439Y651367D02*
X302439Y651367D01*
X300930Y651858D01*
X299517Y652578D01*
X298233Y653511D01*
X297111Y654633D01*
X296178Y655917D01*
X295458Y657330D01*
X294967Y658839D01*
X294835Y659677D01*
X303277Y659677D01*
X303277Y651235D01*
X302439Y651367D01*
G37*
%LPD*%
%LPC*%
G36*
X658039Y651367D02*
X658039Y651367D01*
X656530Y651858D01*
X655117Y652578D01*
X653833Y653511D01*
X652711Y654633D01*
X651778Y655917D01*
X651058Y657330D01*
X650567Y658839D01*
X650435Y659677D01*
X658877Y659677D01*
X658877Y651235D01*
X658039Y651367D01*
G37*
%LPD*%
%LPC*%
G36*
X632639Y651367D02*
X632639Y651367D01*
X631130Y651858D01*
X629717Y652578D01*
X628433Y653511D01*
X627311Y654633D01*
X626378Y655917D01*
X625658Y657330D01*
X625167Y658839D01*
X625035Y659677D01*
X633477Y659677D01*
X633477Y651235D01*
X632639Y651367D01*
G37*
%LPD*%
%LPC*%
G36*
X734239Y651367D02*
X734239Y651367D01*
X732730Y651858D01*
X731317Y652578D01*
X730033Y653511D01*
X728911Y654633D01*
X727978Y655917D01*
X727258Y657330D01*
X726767Y658839D01*
X726635Y659677D01*
X735077Y659677D01*
X735077Y651235D01*
X734239Y651367D01*
G37*
%LPD*%
%LPC*%
G36*
X607239Y651367D02*
X607239Y651367D01*
X605730Y651858D01*
X604317Y652578D01*
X603033Y653511D01*
X601911Y654633D01*
X600978Y655917D01*
X600258Y657330D01*
X599767Y658839D01*
X599635Y659677D01*
X608077Y659677D01*
X608077Y651235D01*
X607239Y651367D01*
G37*
%LPD*%
%LPC*%
G36*
X429439Y651367D02*
X429439Y651367D01*
X427930Y651858D01*
X426517Y652578D01*
X425233Y653511D01*
X424111Y654633D01*
X423178Y655917D01*
X422458Y657330D01*
X421967Y658839D01*
X421835Y659677D01*
X430277Y659677D01*
X430277Y651235D01*
X429439Y651367D01*
G37*
%LPD*%
%LPC*%
G36*
X251639Y651367D02*
X251639Y651367D01*
X250130Y651858D01*
X248717Y652578D01*
X247433Y653511D01*
X246311Y654633D01*
X245378Y655917D01*
X244658Y657330D01*
X244167Y658839D01*
X244035Y659677D01*
X252477Y659677D01*
X252477Y651235D01*
X251639Y651367D01*
G37*
%LPD*%
%LPC*%
G36*
X404039Y651367D02*
X404039Y651367D01*
X402530Y651858D01*
X401117Y652578D01*
X399833Y653511D01*
X398711Y654633D01*
X397778Y655917D01*
X397058Y657330D01*
X396567Y658839D01*
X396435Y659677D01*
X404877Y659677D01*
X404877Y651235D01*
X404039Y651367D01*
G37*
%LPD*%
%LPC*%
G36*
X505639Y651367D02*
X505639Y651367D01*
X504130Y651858D01*
X502717Y652578D01*
X501433Y653511D01*
X500311Y654633D01*
X499378Y655917D01*
X498658Y657330D01*
X498167Y658839D01*
X498035Y659677D01*
X506477Y659677D01*
X506477Y651235D01*
X505639Y651367D01*
G37*
%LPD*%
%LPC*%
G36*
X327839Y651367D02*
X327839Y651367D01*
X326330Y651858D01*
X324917Y652578D01*
X323633Y653511D01*
X322511Y654633D01*
X321578Y655917D01*
X320858Y657330D01*
X320367Y658839D01*
X320235Y659677D01*
X328677Y659677D01*
X328677Y651235D01*
X327839Y651367D01*
G37*
%LPD*%
%LPC*%
G36*
X480239Y651367D02*
X480239Y651367D01*
X478730Y651858D01*
X477317Y652578D01*
X476033Y653511D01*
X474911Y654633D01*
X473978Y655917D01*
X473258Y657330D01*
X472767Y658839D01*
X472635Y659677D01*
X481077Y659677D01*
X481077Y651235D01*
X480239Y651367D01*
G37*
%LPD*%
%LPC*%
G36*
X378639Y651367D02*
X378639Y651367D01*
X377130Y651858D01*
X375717Y652578D01*
X374433Y653511D01*
X373311Y654633D01*
X372378Y655917D01*
X371658Y657330D01*
X371167Y658839D01*
X371035Y659677D01*
X379477Y659677D01*
X379477Y651235D01*
X378639Y651367D01*
G37*
%LPD*%
%LPC*%
G36*
X454839Y651367D02*
X454839Y651367D01*
X453330Y651858D01*
X451917Y652578D01*
X450633Y653511D01*
X449511Y654633D01*
X448578Y655917D01*
X447858Y657330D01*
X447367Y658839D01*
X447235Y659677D01*
X455677Y659677D01*
X455677Y651235D01*
X454839Y651367D01*
G37*
%LPD*%
%LPC*%
G36*
X304799Y661199D02*
X304799Y661199D01*
X304799Y661201D01*
X304801Y661201D01*
X304801Y661199D01*
X304799Y661199D01*
G37*
%LPD*%
%LPC*%
G36*
X279399Y661199D02*
X279399Y661199D01*
X279399Y661201D01*
X279401Y661201D01*
X279401Y661199D01*
X279399Y661199D01*
G37*
%LPD*%
%LPC*%
G36*
X253999Y661199D02*
X253999Y661199D01*
X253999Y661201D01*
X254001Y661201D01*
X254001Y661199D01*
X253999Y661199D01*
G37*
%LPD*%
%LPC*%
G36*
X330199Y661199D02*
X330199Y661199D01*
X330199Y661201D01*
X330201Y661201D01*
X330201Y661199D01*
X330199Y661199D01*
G37*
%LPD*%
%LPC*%
G36*
X1041599Y647699D02*
X1041599Y647699D01*
X1041599Y647701D01*
X1041601Y647701D01*
X1041601Y647699D01*
X1041599Y647699D01*
G37*
%LPD*%
D10*
X736600Y661200D03*
X711200Y661200D03*
X685800Y661200D03*
X660400Y661200D03*
X635000Y661200D03*
X609600Y661200D03*
X584200Y661200D03*
X558800Y661200D03*
X533400Y661200D03*
X508000Y661200D03*
X482600Y661200D03*
X457200Y661200D03*
X431800Y661200D03*
X406400Y661200D03*
X381000Y661200D03*
X355600Y661200D03*
X330200Y661200D03*
X304800Y661200D03*
X279400Y661200D03*
X254000Y661200D03*
D11*
X38300Y646200D03*
X38300Y389600D03*
X952300Y389600D03*
X952300Y643200D03*
D12*
X38100Y203200D03*
X38100Y25400D03*
D13*
X177800Y215900D03*
X203200Y215900D03*
X228600Y215900D03*
X254000Y215900D03*
X279400Y215900D03*
X304800Y215900D03*
X330200Y215900D03*
X355600Y215900D03*
X381000Y215900D03*
X406400Y215900D03*
X431800Y215900D03*
X457200Y215900D03*
X177800Y12700D03*
X203200Y12700D03*
X228600Y12700D03*
X254000Y12700D03*
X279400Y12700D03*
X304800Y12700D03*
X330200Y12700D03*
X355600Y12700D03*
X381000Y12700D03*
X406400Y12700D03*
X431800Y12700D03*
X457200Y12700D03*
X152400Y12700D03*
X127000Y12700D03*
X101600Y12700D03*
X76200Y12700D03*
D14*
X1041600Y647700D03*
X1041600Y673100D03*
D15*
X1034300Y428900D03*
X1034300Y383900D03*
X1099300Y428900D03*
X1099300Y383900D03*
X767600Y73300D03*
X767600Y28300D03*
X832600Y73300D03*
X832600Y28300D03*
X767600Y225700D03*
X767600Y180700D03*
X832600Y225700D03*
X832600Y180700D03*
X1034300Y149500D03*
X1034300Y104500D03*
X1099300Y149500D03*
X1099300Y104500D03*
X869200Y149500D03*
X869200Y104500D03*
X934200Y149500D03*
X934200Y104500D03*
X666000Y149500D03*
X666000Y104500D03*
X731000Y149500D03*
X731000Y104500D03*
D16*
X583692Y231648D02*
X583692Y659892D01*
X583692Y231648D02*
X367284Y15240D01*
X367284Y7620D01*
X361188Y1524D01*
X341376Y1524D01*
X330200Y12700D01*
X583692Y659892D02*
X584200Y661200D01*
X557784Y659892D02*
X557784Y214884D01*
X355600Y12700D01*
X557784Y659892D02*
X558800Y661200D01*
X755904Y149352D02*
X757428Y149352D01*
X755904Y149352D02*
X731520Y149352D01*
X757428Y149352D02*
X832104Y74676D01*
X731520Y149352D02*
X731000Y149500D01*
X832104Y74676D02*
X832600Y73300D01*
X755904Y149352D02*
X832104Y225552D01*
X832600Y225700D01*
X111252Y12192D02*
X102108Y12192D01*
X111252Y12192D02*
X124968Y-1524D01*
X579120Y-1524D01*
X729996Y149352D01*
X102108Y12192D02*
X101600Y12700D01*
X729996Y149352D02*
X731000Y149500D01*
X355092Y409956D02*
X355092Y659892D01*
X355092Y409956D02*
X76200Y131064D01*
X76200Y12700D01*
X355092Y659892D02*
X355600Y661200D01*
X1028700Y384048D02*
X1033272Y384048D01*
X1028700Y384048D02*
X740664Y672084D01*
X367284Y672084D01*
X356616Y661416D01*
X1033272Y384048D02*
X1034300Y383900D01*
X356616Y661416D02*
X355600Y661200D01*
M02*
