G04 EAGLE Gerber RS-274X export*
G75*
%MOMM*%
%FSLAX34Y34*%
%LPD*%
%INSoldermask Bottom*%
%IPPOS*%
%AMOC8*
5,1,8,0,0,1.08239X$1,22.5*%
G01*
%ADD10C,1.711200*%
%ADD11C,3.953200*%
%ADD12C,2.743200*%
%ADD13C,4.013200*%
%ADD14C,1.981200*%
%ADD15P,1.852186X8X202.500000*%
%ADD16C,1.803200*%


D10*
X736600Y661200D03*
X711200Y661200D03*
X685800Y661200D03*
X660400Y661200D03*
X635000Y661200D03*
X609600Y661200D03*
X584200Y661200D03*
X558800Y661200D03*
X533400Y661200D03*
X508000Y661200D03*
X482600Y661200D03*
X457200Y661200D03*
X431800Y661200D03*
X406400Y661200D03*
X381000Y661200D03*
X355600Y661200D03*
X330200Y661200D03*
X304800Y661200D03*
X279400Y661200D03*
X254000Y661200D03*
D11*
X38300Y646200D03*
X38300Y389600D03*
X952300Y389600D03*
X952300Y643200D03*
D12*
X495300Y203200D03*
X495300Y25400D03*
D13*
X38100Y203200D03*
X38100Y25400D03*
D14*
X177800Y215900D03*
X203200Y215900D03*
X228600Y215900D03*
X254000Y215900D03*
X279400Y215900D03*
X304800Y215900D03*
X330200Y215900D03*
X355600Y215900D03*
X381000Y215900D03*
X406400Y215900D03*
X431800Y215900D03*
X457200Y215900D03*
X177800Y12700D03*
X203200Y12700D03*
X228600Y12700D03*
X254000Y12700D03*
X279400Y12700D03*
X304800Y12700D03*
X330200Y12700D03*
X355600Y12700D03*
X381000Y12700D03*
X406400Y12700D03*
X431800Y12700D03*
X457200Y12700D03*
X152400Y12700D03*
X127000Y12700D03*
X101600Y12700D03*
X76200Y12700D03*
D15*
X1041600Y647700D03*
X1041600Y673100D03*
D16*
X1034300Y428900D03*
X1034300Y383900D03*
X1099300Y428900D03*
X1099300Y383900D03*
X767600Y73300D03*
X767600Y28300D03*
X832600Y73300D03*
X832600Y28300D03*
X767600Y225700D03*
X767600Y180700D03*
X832600Y225700D03*
X832600Y180700D03*
X1034300Y149500D03*
X1034300Y104500D03*
X1099300Y149500D03*
X1099300Y104500D03*
X869200Y149500D03*
X869200Y104500D03*
X934200Y149500D03*
X934200Y104500D03*
X666000Y149500D03*
X666000Y104500D03*
X731000Y149500D03*
X731000Y104500D03*
M02*
