G04 EAGLE Gerber RS-274X export*
G75*
%MOMM*%
%FSLAX34Y34*%
%LPD*%
%IN*%
%IPPOS*%
%AMOC8*
5,1,8,0,0,1.08239X$1,22.5*%
G01*
%ADD10C,0.000000*%
%ADD11C,0.254000*%


D10*
X0Y-38100D02*
X1130100Y-38100D01*
X1130100Y720600D01*
X0Y720600D01*
X0Y-38100D01*
X482600Y203200D02*
X482604Y203512D01*
X482615Y203823D01*
X482634Y204134D01*
X482661Y204445D01*
X482696Y204755D01*
X482737Y205063D01*
X482787Y205371D01*
X482844Y205678D01*
X482909Y205983D01*
X482981Y206286D01*
X483060Y206587D01*
X483147Y206887D01*
X483241Y207184D01*
X483342Y207479D01*
X483451Y207771D01*
X483567Y208060D01*
X483690Y208347D01*
X483819Y208630D01*
X483956Y208910D01*
X484100Y209187D01*
X484250Y209460D01*
X484407Y209729D01*
X484570Y209994D01*
X484740Y210256D01*
X484917Y210513D01*
X485099Y210765D01*
X485288Y211013D01*
X485483Y211257D01*
X485683Y211495D01*
X485890Y211729D01*
X486102Y211957D01*
X486320Y212180D01*
X486543Y212398D01*
X486771Y212610D01*
X487005Y212817D01*
X487243Y213017D01*
X487487Y213212D01*
X487735Y213401D01*
X487987Y213583D01*
X488244Y213760D01*
X488506Y213930D01*
X488771Y214093D01*
X489040Y214250D01*
X489313Y214400D01*
X489590Y214544D01*
X489870Y214681D01*
X490153Y214810D01*
X490440Y214933D01*
X490729Y215049D01*
X491021Y215158D01*
X491316Y215259D01*
X491613Y215353D01*
X491913Y215440D01*
X492214Y215519D01*
X492517Y215591D01*
X492822Y215656D01*
X493129Y215713D01*
X493437Y215763D01*
X493745Y215804D01*
X494055Y215839D01*
X494366Y215866D01*
X494677Y215885D01*
X494988Y215896D01*
X495300Y215900D01*
X495612Y215896D01*
X495923Y215885D01*
X496234Y215866D01*
X496545Y215839D01*
X496855Y215804D01*
X497163Y215763D01*
X497471Y215713D01*
X497778Y215656D01*
X498083Y215591D01*
X498386Y215519D01*
X498687Y215440D01*
X498987Y215353D01*
X499284Y215259D01*
X499579Y215158D01*
X499871Y215049D01*
X500160Y214933D01*
X500447Y214810D01*
X500730Y214681D01*
X501010Y214544D01*
X501287Y214400D01*
X501560Y214250D01*
X501829Y214093D01*
X502094Y213930D01*
X502356Y213760D01*
X502613Y213583D01*
X502865Y213401D01*
X503113Y213212D01*
X503357Y213017D01*
X503595Y212817D01*
X503829Y212610D01*
X504057Y212398D01*
X504280Y212180D01*
X504498Y211957D01*
X504710Y211729D01*
X504917Y211495D01*
X505117Y211257D01*
X505312Y211013D01*
X505501Y210765D01*
X505683Y210513D01*
X505860Y210256D01*
X506030Y209994D01*
X506193Y209729D01*
X506350Y209460D01*
X506500Y209187D01*
X506644Y208910D01*
X506781Y208630D01*
X506910Y208347D01*
X507033Y208060D01*
X507149Y207771D01*
X507258Y207479D01*
X507359Y207184D01*
X507453Y206887D01*
X507540Y206587D01*
X507619Y206286D01*
X507691Y205983D01*
X507756Y205678D01*
X507813Y205371D01*
X507863Y205063D01*
X507904Y204755D01*
X507939Y204445D01*
X507966Y204134D01*
X507985Y203823D01*
X507996Y203512D01*
X508000Y203200D01*
X507996Y202888D01*
X507985Y202577D01*
X507966Y202266D01*
X507939Y201955D01*
X507904Y201645D01*
X507863Y201337D01*
X507813Y201029D01*
X507756Y200722D01*
X507691Y200417D01*
X507619Y200114D01*
X507540Y199813D01*
X507453Y199513D01*
X507359Y199216D01*
X507258Y198921D01*
X507149Y198629D01*
X507033Y198340D01*
X506910Y198053D01*
X506781Y197770D01*
X506644Y197490D01*
X506500Y197213D01*
X506350Y196940D01*
X506193Y196671D01*
X506030Y196406D01*
X505860Y196144D01*
X505683Y195887D01*
X505501Y195635D01*
X505312Y195387D01*
X505117Y195143D01*
X504917Y194905D01*
X504710Y194671D01*
X504498Y194443D01*
X504280Y194220D01*
X504057Y194002D01*
X503829Y193790D01*
X503595Y193583D01*
X503357Y193383D01*
X503113Y193188D01*
X502865Y192999D01*
X502613Y192817D01*
X502356Y192640D01*
X502094Y192470D01*
X501829Y192307D01*
X501560Y192150D01*
X501287Y192000D01*
X501010Y191856D01*
X500730Y191719D01*
X500447Y191590D01*
X500160Y191467D01*
X499871Y191351D01*
X499579Y191242D01*
X499284Y191141D01*
X498987Y191047D01*
X498687Y190960D01*
X498386Y190881D01*
X498083Y190809D01*
X497778Y190744D01*
X497471Y190687D01*
X497163Y190637D01*
X496855Y190596D01*
X496545Y190561D01*
X496234Y190534D01*
X495923Y190515D01*
X495612Y190504D01*
X495300Y190500D01*
X494988Y190504D01*
X494677Y190515D01*
X494366Y190534D01*
X494055Y190561D01*
X493745Y190596D01*
X493437Y190637D01*
X493129Y190687D01*
X492822Y190744D01*
X492517Y190809D01*
X492214Y190881D01*
X491913Y190960D01*
X491613Y191047D01*
X491316Y191141D01*
X491021Y191242D01*
X490729Y191351D01*
X490440Y191467D01*
X490153Y191590D01*
X489870Y191719D01*
X489590Y191856D01*
X489313Y192000D01*
X489040Y192150D01*
X488771Y192307D01*
X488506Y192470D01*
X488244Y192640D01*
X487987Y192817D01*
X487735Y192999D01*
X487487Y193188D01*
X487243Y193383D01*
X487005Y193583D01*
X486771Y193790D01*
X486543Y194002D01*
X486320Y194220D01*
X486102Y194443D01*
X485890Y194671D01*
X485683Y194905D01*
X485483Y195143D01*
X485288Y195387D01*
X485099Y195635D01*
X484917Y195887D01*
X484740Y196144D01*
X484570Y196406D01*
X484407Y196671D01*
X484250Y196940D01*
X484100Y197213D01*
X483956Y197490D01*
X483819Y197770D01*
X483690Y198053D01*
X483567Y198340D01*
X483451Y198629D01*
X483342Y198921D01*
X483241Y199216D01*
X483147Y199513D01*
X483060Y199813D01*
X482981Y200114D01*
X482909Y200417D01*
X482844Y200722D01*
X482787Y201029D01*
X482737Y201337D01*
X482696Y201645D01*
X482661Y201955D01*
X482634Y202266D01*
X482615Y202577D01*
X482604Y202888D01*
X482600Y203200D01*
X482600Y25400D02*
X482604Y25712D01*
X482615Y26023D01*
X482634Y26334D01*
X482661Y26645D01*
X482696Y26955D01*
X482737Y27263D01*
X482787Y27571D01*
X482844Y27878D01*
X482909Y28183D01*
X482981Y28486D01*
X483060Y28787D01*
X483147Y29087D01*
X483241Y29384D01*
X483342Y29679D01*
X483451Y29971D01*
X483567Y30260D01*
X483690Y30547D01*
X483819Y30830D01*
X483956Y31110D01*
X484100Y31387D01*
X484250Y31660D01*
X484407Y31929D01*
X484570Y32194D01*
X484740Y32456D01*
X484917Y32713D01*
X485099Y32965D01*
X485288Y33213D01*
X485483Y33457D01*
X485683Y33695D01*
X485890Y33929D01*
X486102Y34157D01*
X486320Y34380D01*
X486543Y34598D01*
X486771Y34810D01*
X487005Y35017D01*
X487243Y35217D01*
X487487Y35412D01*
X487735Y35601D01*
X487987Y35783D01*
X488244Y35960D01*
X488506Y36130D01*
X488771Y36293D01*
X489040Y36450D01*
X489313Y36600D01*
X489590Y36744D01*
X489870Y36881D01*
X490153Y37010D01*
X490440Y37133D01*
X490729Y37249D01*
X491021Y37358D01*
X491316Y37459D01*
X491613Y37553D01*
X491913Y37640D01*
X492214Y37719D01*
X492517Y37791D01*
X492822Y37856D01*
X493129Y37913D01*
X493437Y37963D01*
X493745Y38004D01*
X494055Y38039D01*
X494366Y38066D01*
X494677Y38085D01*
X494988Y38096D01*
X495300Y38100D01*
X495612Y38096D01*
X495923Y38085D01*
X496234Y38066D01*
X496545Y38039D01*
X496855Y38004D01*
X497163Y37963D01*
X497471Y37913D01*
X497778Y37856D01*
X498083Y37791D01*
X498386Y37719D01*
X498687Y37640D01*
X498987Y37553D01*
X499284Y37459D01*
X499579Y37358D01*
X499871Y37249D01*
X500160Y37133D01*
X500447Y37010D01*
X500730Y36881D01*
X501010Y36744D01*
X501287Y36600D01*
X501560Y36450D01*
X501829Y36293D01*
X502094Y36130D01*
X502356Y35960D01*
X502613Y35783D01*
X502865Y35601D01*
X503113Y35412D01*
X503357Y35217D01*
X503595Y35017D01*
X503829Y34810D01*
X504057Y34598D01*
X504280Y34380D01*
X504498Y34157D01*
X504710Y33929D01*
X504917Y33695D01*
X505117Y33457D01*
X505312Y33213D01*
X505501Y32965D01*
X505683Y32713D01*
X505860Y32456D01*
X506030Y32194D01*
X506193Y31929D01*
X506350Y31660D01*
X506500Y31387D01*
X506644Y31110D01*
X506781Y30830D01*
X506910Y30547D01*
X507033Y30260D01*
X507149Y29971D01*
X507258Y29679D01*
X507359Y29384D01*
X507453Y29087D01*
X507540Y28787D01*
X507619Y28486D01*
X507691Y28183D01*
X507756Y27878D01*
X507813Y27571D01*
X507863Y27263D01*
X507904Y26955D01*
X507939Y26645D01*
X507966Y26334D01*
X507985Y26023D01*
X507996Y25712D01*
X508000Y25400D01*
X507996Y25088D01*
X507985Y24777D01*
X507966Y24466D01*
X507939Y24155D01*
X507904Y23845D01*
X507863Y23537D01*
X507813Y23229D01*
X507756Y22922D01*
X507691Y22617D01*
X507619Y22314D01*
X507540Y22013D01*
X507453Y21713D01*
X507359Y21416D01*
X507258Y21121D01*
X507149Y20829D01*
X507033Y20540D01*
X506910Y20253D01*
X506781Y19970D01*
X506644Y19690D01*
X506500Y19413D01*
X506350Y19140D01*
X506193Y18871D01*
X506030Y18606D01*
X505860Y18344D01*
X505683Y18087D01*
X505501Y17835D01*
X505312Y17587D01*
X505117Y17343D01*
X504917Y17105D01*
X504710Y16871D01*
X504498Y16643D01*
X504280Y16420D01*
X504057Y16202D01*
X503829Y15990D01*
X503595Y15783D01*
X503357Y15583D01*
X503113Y15388D01*
X502865Y15199D01*
X502613Y15017D01*
X502356Y14840D01*
X502094Y14670D01*
X501829Y14507D01*
X501560Y14350D01*
X501287Y14200D01*
X501010Y14056D01*
X500730Y13919D01*
X500447Y13790D01*
X500160Y13667D01*
X499871Y13551D01*
X499579Y13442D01*
X499284Y13341D01*
X498987Y13247D01*
X498687Y13160D01*
X498386Y13081D01*
X498083Y13009D01*
X497778Y12944D01*
X497471Y12887D01*
X497163Y12837D01*
X496855Y12796D01*
X496545Y12761D01*
X496234Y12734D01*
X495923Y12715D01*
X495612Y12704D01*
X495300Y12700D01*
X494988Y12704D01*
X494677Y12715D01*
X494366Y12734D01*
X494055Y12761D01*
X493745Y12796D01*
X493437Y12837D01*
X493129Y12887D01*
X492822Y12944D01*
X492517Y13009D01*
X492214Y13081D01*
X491913Y13160D01*
X491613Y13247D01*
X491316Y13341D01*
X491021Y13442D01*
X490729Y13551D01*
X490440Y13667D01*
X490153Y13790D01*
X489870Y13919D01*
X489590Y14056D01*
X489313Y14200D01*
X489040Y14350D01*
X488771Y14507D01*
X488506Y14670D01*
X488244Y14840D01*
X487987Y15017D01*
X487735Y15199D01*
X487487Y15388D01*
X487243Y15583D01*
X487005Y15783D01*
X486771Y15990D01*
X486543Y16202D01*
X486320Y16420D01*
X486102Y16643D01*
X485890Y16871D01*
X485683Y17105D01*
X485483Y17343D01*
X485288Y17587D01*
X485099Y17835D01*
X484917Y18087D01*
X484740Y18344D01*
X484570Y18606D01*
X484407Y18871D01*
X484250Y19140D01*
X484100Y19413D01*
X483956Y19690D01*
X483819Y19970D01*
X483690Y20253D01*
X483567Y20540D01*
X483451Y20829D01*
X483342Y21121D01*
X483241Y21416D01*
X483147Y21713D01*
X483060Y22013D01*
X482981Y22314D01*
X482909Y22617D01*
X482844Y22922D01*
X482787Y23229D01*
X482737Y23537D01*
X482696Y23845D01*
X482661Y24155D01*
X482634Y24466D01*
X482615Y24777D01*
X482604Y25088D01*
X482600Y25400D01*
D11*
X0Y-38100D02*
X1130100Y-38100D01*
X1130100Y720600D01*
X0Y720600D01*
X0Y-38100D01*
X508000Y202701D02*
X507922Y201706D01*
X507766Y200720D01*
X507533Y199750D01*
X507224Y198801D01*
X506842Y197879D01*
X506389Y196990D01*
X505868Y196139D01*
X505281Y195331D01*
X504633Y194573D01*
X503927Y193867D01*
X503169Y193219D01*
X502361Y192632D01*
X501510Y192111D01*
X500621Y191658D01*
X499699Y191276D01*
X498750Y190967D01*
X497780Y190734D01*
X496794Y190578D01*
X495799Y190500D01*
X494801Y190500D01*
X493806Y190578D01*
X492820Y190734D01*
X491850Y190967D01*
X490901Y191276D01*
X489979Y191658D01*
X489090Y192111D01*
X488239Y192632D01*
X487431Y193219D01*
X486673Y193867D01*
X485967Y194573D01*
X485319Y195331D01*
X484732Y196139D01*
X484211Y196990D01*
X483758Y197879D01*
X483376Y198801D01*
X483067Y199750D01*
X482834Y200720D01*
X482678Y201706D01*
X482600Y202701D01*
X482600Y203699D01*
X482678Y204694D01*
X482834Y205680D01*
X483067Y206650D01*
X483376Y207599D01*
X483758Y208521D01*
X484211Y209410D01*
X484732Y210261D01*
X485319Y211069D01*
X485967Y211827D01*
X486673Y212533D01*
X487431Y213181D01*
X488239Y213768D01*
X489090Y214289D01*
X489979Y214742D01*
X490901Y215124D01*
X491850Y215433D01*
X492820Y215666D01*
X493806Y215822D01*
X494801Y215900D01*
X495799Y215900D01*
X496794Y215822D01*
X497780Y215666D01*
X498750Y215433D01*
X499699Y215124D01*
X500621Y214742D01*
X501510Y214289D01*
X502361Y213768D01*
X503169Y213181D01*
X503927Y212533D01*
X504633Y211827D01*
X505281Y211069D01*
X505868Y210261D01*
X506389Y209410D01*
X506842Y208521D01*
X507224Y207599D01*
X507533Y206650D01*
X507766Y205680D01*
X507922Y204694D01*
X508000Y203699D01*
X508000Y202701D01*
X508000Y24901D02*
X507922Y23906D01*
X507766Y22920D01*
X507533Y21950D01*
X507224Y21001D01*
X506842Y20079D01*
X506389Y19190D01*
X505868Y18339D01*
X505281Y17531D01*
X504633Y16773D01*
X503927Y16067D01*
X503169Y15419D01*
X502361Y14832D01*
X501510Y14311D01*
X500621Y13858D01*
X499699Y13476D01*
X498750Y13167D01*
X497780Y12934D01*
X496794Y12778D01*
X495799Y12700D01*
X494801Y12700D01*
X493806Y12778D01*
X492820Y12934D01*
X491850Y13167D01*
X490901Y13476D01*
X489979Y13858D01*
X489090Y14311D01*
X488239Y14832D01*
X487431Y15419D01*
X486673Y16067D01*
X485967Y16773D01*
X485319Y17531D01*
X484732Y18339D01*
X484211Y19190D01*
X483758Y20079D01*
X483376Y21001D01*
X483067Y21950D01*
X482834Y22920D01*
X482678Y23906D01*
X482600Y24901D01*
X482600Y25899D01*
X482678Y26894D01*
X482834Y27880D01*
X483067Y28850D01*
X483376Y29799D01*
X483758Y30721D01*
X484211Y31610D01*
X484732Y32461D01*
X485319Y33269D01*
X485967Y34027D01*
X486673Y34733D01*
X487431Y35381D01*
X488239Y35968D01*
X489090Y36489D01*
X489979Y36942D01*
X490901Y37324D01*
X491850Y37633D01*
X492820Y37866D01*
X493806Y38022D01*
X494801Y38100D01*
X495799Y38100D01*
X496794Y38022D01*
X497780Y37866D01*
X498750Y37633D01*
X499699Y37324D01*
X500621Y36942D01*
X501510Y36489D01*
X502361Y35968D01*
X503169Y35381D01*
X503927Y34733D01*
X504633Y34027D01*
X505281Y33269D01*
X505868Y32461D01*
X506389Y31610D01*
X506842Y30721D01*
X507224Y29799D01*
X507533Y28850D01*
X507766Y27880D01*
X507922Y26894D01*
X508000Y25899D01*
X508000Y24901D01*
M02*
