M48
;GenerationSoftware,Autodesk,EAGLE,9.5.2*%
;CreationDate,2020-02-27T05:56:45Z*%
FMAT,2
ICI,OFF
METRIC,TZ,000.000
T3C1.000
T2C2.500
T1C2.540
%
G90
M71
T1
X49530Y20320
X49530Y2540
T2
X3810Y20320
X3810Y2540
X3830Y64620
X3830Y38960
X95230Y38960
X95230Y64320
T3
X73660Y66120
X71120Y66120
X68580Y66120
X66040Y66120
X63500Y66120
X60960Y66120
X58420Y66120
X55880Y66120
X53340Y66120
X50800Y66120
X48260Y66120
X45720Y66120
X43180Y66120
X40640Y66120
X38100Y66120
X35560Y66120
X33020Y66120
X30480Y66120
X27940Y66120
X25400Y66120
X17780Y21590
X20320Y21590
X22860Y21590
X25400Y21590
X27940Y21590
X30480Y21590
X33020Y21590
X35560Y21590
X38100Y21590
X40640Y21590
X43180Y21590
X45720Y21590
X17780Y1270
X20320Y1270
X22860Y1270
X25400Y1270
X27940Y1270
X30480Y1270
X33020Y1270
X35560Y1270
X38100Y1270
X40640Y1270
X43180Y1270
X45720Y1270
X15240Y1270
X12700Y1270
X10160Y1270
X7620Y1270
X104160Y64770
X104160Y67310
X103430Y42890
X103430Y38390
X109930Y42890
X109930Y38390
X76760Y7330
X76760Y2830
X83260Y7330
X83260Y2830
X76760Y22570
X76760Y18070
X83260Y22570
X83260Y18070
X103430Y14950
X103430Y10450
X109930Y14950
X109930Y10450
X86920Y14950
X86920Y10450
X93420Y14950
X93420Y10450
X66600Y14950
X66600Y10450
X73100Y14950
X73100Y10450
M30